<?xml version="1.0" encoding="UTF-8"?>
<svg id="Layer_1" data-name="Layer 1" xmlns="http://www.w3.org/2000/svg" viewBox="0 0 612 110.86">
  <defs>
    <style>
      .cls-1 {
        fill: #a19781;
      }
    </style>
  </defs>
  <g id="Layer_1-2" data-name="Layer 1-2">
    <g>
      <g>
        <path class="cls-1" d="M77.63,50.22c-.61,.9-1.34,2.31-2.19,3.94-.93,1.79-2,3.83-3.22,5.86-3.33,5.52-7.84,10.93-14.15,10.93-3.05,0-5.68-1.08-7.8-3.22-3.7-3.74-5.71-10.66-5.65-19.47,.07-8.39,1.68-17.38,4.32-24.05,3.16-7.96,7.41-12.17,12.29-12.17,2.57,0,4.63,.89,6.11,2.65,.6,.71,1.1,1.56,1.5,2.53,1.51,3.66,1.65,9.18,.4,16.49-.08,.47-.53,.78-.99,.7-.47-.08-.78-.52-.7-.99,.95-5.56,1.07-10.06,.38-13.35h0s-.02-.06-.03-.09c-.09-.38-.18-.73-.27-1.05-.05-.18-.11-.36-.17-.53h0c-.05-.16-.11-.3-.16-.44v-.02c-.85-2.07-2.02-2.56-3.47-2.56-2.17,0-5.53,2-8.46,7.61-2.32,4.46-5.09,12.73-5.09,26.76,0,15.16,5.89,17.42,9.4,17.42,4.25,0,7.37-2.26,11.12-8.08,.01,0,.02-.03,.03-.05,1.17-1.96,2.2-3.93,3.11-5.67,.87-1.68,1.63-3.13,2.29-4.11,.26-.39,.8-.5,1.19-.23,.4,.26,.5,.8,.23,1.19h-.02Z"/>
        <path class="cls-1" d="M104.22,50.26c-2.26,3.2-8.37,9.07-13.3,9.47-.65,1.14-1.43,2.1-2.3,2.88-1.76,1.59-3.88,2.41-5.94,2.41-2.44,0-8.11-1.05-8.11-10.77,0-5.49,4.03-13.42,11.33-13.42,2.32,0,4.77,1.59,6.06,4.99,0,.02,.02,.04,.03,.06,.02,.04,.03,.09,.05,.13h0c.54,1.51,.86,3.33,.86,5.52,0,2.42-.4,4.54-1.09,6.33,3.87-.96,8.76-5.4,11.01-8.58,.27-.39,.81-.48,1.2-.2,.39,.27,.48,.81,.21,1.2v-.02Zm-13.05,1.26c0-2.02-.29-3.68-.78-5-.4-.91-1.29-2.38-2.81-2.38-3.53,0-7.34,3.79-7.34,9.9,0,5.39,1.5,8.61,4.01,8.61,.99,0,1.92-.4,2.65-.89h0c.25-.19,.51-.4,.76-.63,0,0,.03-.02,.03-.04l.06-.06s.04-.04,.07-.06h0c.45-.45,.88-.96,1.27-1.55-.46-.3-.67-.76-.71-1.19-.1-1.05,.75-2.04,1.93-2.27,.1-.02,.21-.02,.3,0,.35-1.28,.55-2.75,.55-4.43h0Z"/>
        <path class="cls-1" d="M134.48,19.95s-.01,.04-.02,.06h0c-.73,3.25-2.41,7.46-5.01,12.62-2.71,5.36-5.78,10.46-8.08,13.98,.16,18.36,2.62,19.83,3.39,19.83,.11,0,.4-.13,1.01-1.14,0-.02,.02-.04,.03-.06,.12-.21,.24-.43,.37-.67,.03-.05,.06-.11,.09-.17l.12-.22h0c.16-.3,.33-.63,.5-.97,1.86-3.68,3.71-8.32,5.06-11.71,.3-.76,.58-1.46,.84-2.09,.18-.44,.68-.65,1.12-.47s.65,.68,.47,1.12c-.25,.63-.54,1.33-.84,2.08-2.06,5.15-4.01,9.86-5.87,13.28-.01,.02-.02,.04-.04,.07-.12,.22-.25,.47-.4,.71-1.71,2.99-3.34,4.82-4.92,4.82-2.47,0-4.18-2.64-5.23-8.07-.37-1.91-.66-4.15-.87-6.71-.51,1.09-1.13,2.26-1.86,3.37-1.88,2.88-4.53,5.39-8.14,5.39-2.84,0-6.16-2.25-6.16-8.59,0-8.04,6.69-15.61,11.88-15.61,1.92,0,3.13,.44,3.97,1.04,.35-7.51,1.81-14.47,4.19-19.89,2.81-6.4,6.58-9.92,10.61-9.92,2.18,0,3.18,1.09,3.64,2.01,.34,.68,.52,1.53,.53,2.57v.09c.04,.92-.09,2-.4,3.24h.02Zm-18.51,32.41c-.09-2.14-.14-4.47-.14-6.95,0-.39,0-.77,.01-1.16-.05-.06-.09-.13-.13-.19-.15-.2-.31-.39-.51-.57h0c-.3-.18-.77-.29-1.54-.08-3.35,.91-8.22,6.65-8.22,13.6,0,3.54,1.87,5.32,2.92,5.32s2.53-1.04,3.78-2.57c1.92-2.48,3.19-5.66,3.84-7.39h0Zm16.77-37.04c-.19-.25-.46-.37-.79-.37-2.66,0-10.25,9.8-10.58,28.51,4.5-7.18,9.92-17.32,11.42-23.73,0-.07,0-.13,.03-.2,.1-.39,.17-.75,.23-1.08,.04-.24,.07-.46,.09-.67,.15-1.53-.19-2.21-.39-2.45h0Z"/>
        <path class="cls-1" d="M150.79,50.17l-.5,.86c-1.96,3.34-3.97,6.65-5.98,9.21-.02,.04-.05,.07-.08,.11l-.09,.1s-.04,.05-.07,.08c-2.17,2.69-4.33,4.48-6.43,4.48-1.73,0-3.13-.73-4.17-2.17-3.47-4.82-1.7-16.61-.41-20.49,.44-1.32,2.14-1.79,3.46-1.39,1.19,.36,2.17,1.49,1.71,3.21-1.4,5.15-2.39,14.11-.08,16.97,.51,.63,1.13,.91,1.96,.87,.24-.07,.91-.5,2.72-2.66l.09-.11s0,0,.01-.02c2.23-2.83,4.4-6.54,5.88-9.06l.51-.87c.24-.41,.77-.54,1.18-.31,.41,.24,.54,.77,.3,1.18h0Zm-16.6-15.11c.23-1.02,1.88-1.51,3.67-1.1,1.79,.42,3.05,1.58,2.81,2.6-.23,1.02-1.88,1.51-3.67,1.09s-3.05-1.58-2.81-2.6h0Z"/>
        <path class="cls-1" d="M179.5,50.41c-.18,.15-.48,.38-.86,.67-4.18,3.22-7.93,6.41-11.22,9.56-.71,14.94-2.9,33.57-8.52,39.36-1.26,1.29-2.66,1.95-4.17,1.95-2.53,0-6.77-1.33-6.77-10.26s4.81-18.1,14.09-28.04c.13-2.59,.21-5.09,.26-7.4-.4,.96-.84,1.94-1.34,2.88l-.12,.21c-1.7,3.1-4.04,5.68-7.32,5.68-2.84,0-6.16-2.25-6.16-8.59,0-8.06,6.25-14.96,11.37-14.96,1.64,0,2.84,.48,3.68,1.2,.39-1.06,1.27-1.7,2.18-1.82,.72-.1,1.41,.11,1.97,.58,.48,.41,1.06,1.19,1.1,2.63,.09,3.26,.09,8.33-.13,14.14,3.02-2.8,6.38-5.63,10.07-8.47,.38-.29,.66-.51,.83-.65,.37-.3,.91-.24,1.21,.13,.3,.37,.24,.91-.13,1.21h-.02Zm-17.61,15.91c-8.05,9.04-12.22,17.62-12.22,25.35,0,.62,.02,1.26,.08,1.9,.38,2.91,1.75,5.36,3,5.36,.83,0,1.6-.39,2.37-1.21,4.12-4.39,6-18.56,6.78-31.41h-.01Zm.47-15.34c0-1.73-.02-3.26-.05-4.5-.74-1.03-2.04-.87-2.79-.67-2.63,.71-6.79,4.37-6.79,11.18,0,3.63,1.4,5.32,2.35,5.32,1.46,0,3.3-2.02,4.37-4.01,.01-.03,.03-.05,.05-.07,1.23-2.32,2.11-4.98,2.75-6.88,.04-.13,.08-.25,.12-.37h-.01Z"/>
        <path class="cls-1" d="M206.24,50.26c-2.26,3.2-8.37,9.07-13.3,9.47-.65,1.14-1.43,2.1-2.3,2.88-1.76,1.59-3.88,2.41-5.94,2.41-2.44,0-8.11-1.05-8.11-10.77,0-5.49,4.03-13.42,11.33-13.42,2.32,0,4.77,1.59,6.06,4.99,0,.02,.02,.04,.03,.06,.02,.04,.03,.09,.05,.13h0c.54,1.51,.86,3.33,.86,5.52,0,2.42-.4,4.54-1.09,6.33,3.87-.96,8.76-5.4,11.01-8.58,.27-.39,.81-.48,1.2-.2,.39,.27,.48,.81,.21,1.2v-.02Zm-13.05,1.26c0-2.02-.29-3.68-.78-5-.4-.91-1.29-2.38-2.81-2.38-3.53,0-7.34,3.79-7.34,9.9,0,5.39,1.5,8.61,4.01,8.61,.99,0,1.92-.4,2.65-.89h0c.25-.19,.51-.4,.76-.63,0,0,.03-.02,.03-.04,.02-.02,.04-.04,.06-.06s.04-.04,.07-.06h0c.45-.45,.88-.96,1.27-1.55-.46-.3-.67-.76-.71-1.19-.1-1.05,.75-2.04,1.93-2.27,.1-.02,.21-.02,.3,0,.35-1.28,.55-2.75,.55-4.43h0Z"/>
        <path class="cls-1" d="M256.44,19.95s0,.04-.02,.06h0c-.73,3.25-2.41,7.46-5.01,12.62-2.71,5.36-5.78,10.46-8.08,13.98,.16,18.36,2.62,19.83,3.39,19.83,.11,0,.4-.13,1.01-1.14,0-.02,.02-.04,.03-.06,.12-.21,.24-.43,.37-.67,.03-.05,.06-.11,.09-.17l.12-.22h0c.16-.3,.33-.63,.5-.97,1.86-3.68,3.71-8.32,5.07-11.71,.3-.76,.58-1.46,.84-2.09,.18-.44,.68-.65,1.12-.47s.65,.68,.47,1.12c-.25,.63-.54,1.33-.84,2.08-2.06,5.15-4.01,9.86-5.87,13.28,0,.02-.02,.04-.04,.07-.12,.22-.25,.47-.4,.71-1.71,2.99-3.34,4.82-4.92,4.82-2.47,0-4.18-2.64-5.23-8.07-.37-1.91-.66-4.15-.87-6.71-.51,1.09-1.13,2.26-1.86,3.37-1.88,2.88-4.53,5.39-8.14,5.39-2.84,0-6.16-2.25-6.16-8.59,0-8.04,6.69-15.61,11.88-15.61,1.92,0,3.13,.44,3.97,1.04,.35-7.51,1.81-14.47,4.19-19.89,2.81-6.4,6.58-9.92,10.61-9.92,2.18,0,3.18,1.09,3.64,2.01,.34,.68,.52,1.53,.53,2.57v.09c.04,.92-.09,2-.4,3.24h0Zm-18.51,32.41c-.09-2.14-.14-4.47-.14-6.95,0-.39,0-.77,0-1.16-.05-.06-.09-.13-.13-.19-.15-.2-.31-.39-.51-.57h0c-.3-.18-.77-.29-1.54-.08-3.35,.91-8.22,6.65-8.22,13.6,0,3.54,1.87,5.32,2.92,5.32s2.53-1.04,3.78-2.57c1.92-2.48,3.19-5.66,3.84-7.39h0Zm16.77-37.04c-.19-.25-.46-.37-.79-.37-2.66,0-10.25,9.8-10.58,28.51,4.5-7.18,9.92-17.32,11.42-23.73,0-.07,0-.13,.03-.2,.1-.39,.17-.75,.23-1.08,.04-.24,.07-.46,.09-.67,.15-1.53-.19-2.21-.39-2.45h0Z"/>
        <path class="cls-1" d="M276.79,50.22c-3.09,4.64-7.93,11.92-13.01,14.13h0c-.07,.05-.16,.08-.25,.11h0c-.88,.36-1.77,.55-2.65,.55-3.54,0-8.52-3.41-8.52-10.98,0-8.68,4.91-13.21,9.75-13.21,1.15,0,2.2,.3,2.97,.85,.93,.66,1.44,1.67,1.44,2.83v.11c-.09,4.38-5.2,7.98-8.45,9.54-.07,.78-.11,1.6-.11,2.47,0,2.63,.65,4.54,1.88,5.51,1.02,.8,2.32,.88,3.23,.68,4.61-1.96,9.5-9.31,12.31-13.54,.26-.39,.8-.5,1.19-.24,.4,.26,.5,.8,.24,1.19h0Zm-18.46,1.85c2.92-1.63,6.36-4.5,6.45-7.45h0c0-.15-.03-.87-.65-1.1-.4-.15-1.04,.04-1.69,.5-1.58,1.1-3.35,3.77-4.11,8.05Z"/>
        <path class="cls-1" d="M348.24,10.5c-6.96,3.93-10.45,21.51-13.25,35.62-.58,2.95-1.13,5.64-1.65,8.05,0,.04,0,.08-.02,.12-.14,.63-.28,1.27-.43,1.9v.03c-.05,.24-.11,.49-.17,.73-.02,.09-.04,.19-.07,.28-.04,.16-.08,.32-.11,.48-.04,.16-.08,.32-.12,.48-.08,.32-.16,.62-.24,.92-.04,.15-.08,.3-.12,.45v.02c-1.62,6.17-3.73,11.45-7.04,11.45-4.96,0-6.64-11.36-8.77-25.74-.32-2.2-.66-4.47-1.01-6.72-.13-.84-.26-1.67-.39-2.5-1.68-10.87-3.27-21.13-7.19-21.13-1.48,0-3.34,.52-6.01,4.41-3.2,6.94-1.07,17.94,1.93,21.8,.29,.38,.22,.91-.15,1.21-.38,.29-.92,.22-1.21-.15-3.34-4.3-5.65-16.03-2.11-23.63,0-.01,0-.03,.02-.05,.03-.07,.07-.14,.1-.21,2.01-4.1,5.52-6.27,10.16-6.27,3.13,0,5.58,3.36,6.37,6.67,1.62,6.76,2.84,15.29,4.03,23.54,.96,6.69,1.87,13,2.89,17.65,1.5,6.81,2.65,7.01,2.78,7.01,.6,0,1.85-.76,3.4-5.88,.04-.12,.08-.25,.11-.38,.01-.04,.03-.09,.04-.13,.67-2.33,1.19-4.64,1.54-6.2l.09-.42q.02-.09,0,0c.55-2.53,1.09-5.29,1.66-8.12,3.02-15.21,6.44-32.46,14.09-36.78,.42-.23,.94-.09,1.17,.32,.23,.42,.09,.94-.32,1.17h0Z"/>
        <path class="cls-1" d="M364.56,50.22c-3.09,4.64-7.93,11.92-13.01,14.13h-.01c-.07,.05-.16,.08-.25,.11h-.01c-.88,.36-1.77,.55-2.65,.55-3.54,0-8.52-3.41-8.52-10.98,0-8.68,4.91-13.21,9.75-13.21,1.15,0,2.2,.3,2.97,.85,.93,.66,1.44,1.67,1.44,2.83v.11c-.09,4.38-5.2,7.98-8.45,9.54-.07,.78-.11,1.6-.11,2.47,0,2.63,.65,4.54,1.88,5.51,1.02,.8,2.32,.88,3.23,.68,4.61-1.96,9.5-9.31,12.31-13.54,.26-.39,.8-.5,1.19-.24,.4,.26,.5,.8,.24,1.19Zm-18.46,1.85c2.92-1.63,6.36-4.5,6.45-7.45h0c0-.15-.03-.87-.65-1.1-.4-.15-1.04,.04-1.69,.5-1.58,1.1-3.35,3.77-4.11,8.05h0Z"/>
        <path class="cls-1" d="M387.44,50.44c-4.43,3.82-8.7,6.32-12.27,8.31,.86,1.26,1.44,2.71,1.44,4.46,0,2.71-1.65,7.83-7.87,7.83-2.62,0-4.19-2.26-4.19-4.44,0-2.94,2.05-4.81,5.2-6.74-.71-.68-1.52-1.29-2.34-1.92-2.61-1.99-5.57-4.25-5.57-9.03,0-3.37,3.53-8.07,9.29-8.07,3.58,0,6.43,1.38,7.62,3.7,0,0,0,.02,.01,.03,.01,.03,.03,.06,.04,.09,.03,.09,.05,.18,.05,.28v.12s-.01,.07-.02,.11c0,.02-.01,.04-.02,.06,0,.02-.01,.04-.02,.06,0,.02-.02,.05-.03,.07s-.03,.04-.04,.07c-.01,.02-.03,.04-.04,.06-.02,.02-.03,.04-.05,.06-.03,.03-.06,.06-.1,.09-.02,0-.04,.03-.06,.04-.04,.03-.08,.04-.13,.06-.02,0-.04,.02-.06,.02-.09,.03-.18,.04-.28,.04h-.12s-.07,0-.11-.02c-.04,0-.07-.02-.11-.04-.03,0-.06-.03-.08-.04-.02,0-.04-.02-.05-.03-.02,0-.04-.03-.06-.04,0,0-.01,0-.02-.02-1.31-1.05-2.25-1.69-4.06-1.69-4.25,0-6.01,3.12-6.01,4.8,0,2.58,2.04,4.38,4.19,6.28,.85,.75,1.74,1.54,2.54,2.41,3.55-1.98,7.83-4.44,12.23-8.24,.36-.31,.9-.27,1.21,.09s.27,.9-.09,1.21l-.02-.03Zm-15.14,15.11c0-1.87-.54-3.25-1.39-4.4-2.88,1.73-4.64,3.25-4.64,5.44,0,1.32,.87,2.72,2.47,2.72h.2c2.08-.12,3.35-2,3.35-3.75h.01Z"/>
        <path class="cls-1" d="M437.73,31.39c-.43,.21-.94,.03-1.15-.4-1.5-3.13-7.06-4.81-11.54-4.81-7.24,0-12.9,1.75-18.37,3.44-4.5,1.39-9.12,2.82-14.59,3.28-.84,4.26-1.42,9.42-1.42,15.62,0,15.85,4.34,19.18,5.19,19.18,.66,0,1.33-1.67,1.88-3.07,.65-1.81,1.25-3.93,1.83-5.93,.92-3.23,1.88-6.57,3.09-9.31,.19-.44,.7-.63,1.13-.44,.43,.19,.63,.7,.44,1.13-1.17,2.64-2.1,5.92-3.01,9.09-.61,2.12-1.19,4.14-1.81,5.9,0,.02-.01,.04-.02,.06h0c-1.25,3.52-2.68,5.95-4.87,5.95-4.52,0-9.09-7.52-9.09-21.9,0-6.21,.58-11.61,1.45-16.22-3.74-.35-6.87-1.94-9.33-4.75-.31-.35-.28-.9,.08-1.21,.36-.31,.9-.28,1.21,.08,.85,.97,3.31,3.77,8.38,4.19,2.05-9.69,5.29-15.54,6.59-17.6,.88-1.39,2.4-1.98,3.54-1.37,.91,.5,1.6,1.87,.57,4.12-.18,.38-.39,.82-.63,1.31-1.27,2.59-3.34,6.83-4.82,13.41,5.02-.48,9.27-1.79,13.71-3.16,5.59-1.73,11.38-3.52,18.88-3.52,5.12,0,11.26,1.99,13.09,5.78,.21,.43,.03,.94-.4,1.15h-.01Z"/>
        <path class="cls-1" d="M420.86,50.17l-.5,.86c-1.96,3.34-3.97,6.65-5.98,9.21-.02,.04-.05,.07-.08,.11l-.09,.1s-.04,.05-.07,.08c-2.17,2.69-4.33,4.48-6.43,4.48-1.73,0-3.13-.73-4.17-2.17-3.47-4.82-1.7-16.61-.41-20.49,.44-1.32,2.14-1.79,3.46-1.39,1.19,.36,2.17,1.49,1.71,3.21-1.4,5.15-2.39,14.11-.08,16.97,.51,.63,1.13,.91,1.96,.87,.24-.07,.91-.5,2.72-2.66l.09-.11s0,0,.01-.02c2.23-2.83,4.4-6.54,5.88-9.06l.51-.87c.24-.41,.77-.54,1.18-.31,.41,.24,.54,.77,.3,1.18h0Zm-16.6-15.11c.23-1.02,1.88-1.51,3.67-1.1,1.79,.42,3.05,1.58,2.81,2.6s-1.88,1.51-3.67,1.09-3.05-1.58-2.81-2.6h0Z"/>
        <path class="cls-1" d="M464.38,50.09c-.09,.2-.21,.49-.37,.86-3,6.99-5.63,12.07-7.98,15.37-.02,.04-.05,.07-.08,.11-.29,.43-.65,.91-1.06,1.37-.03,.04-.06,.07-.09,.11-1.76,2.1-3.36,3.12-4.83,3.12-1.11,0-2.01-.39-2.67-1.17-2.16-2.52-1.22-8.72-.3-14.72,.67-4.41,1.43-9.4,.38-10.63-.09-.11-.22-.21-.5-.21-2.54,0-6.12,7.51-8.72,18.27h0c-.16,1.1-1.29,1.98-2.45,1.89-.79-.06-2.61-.65-2.42-4.79,.36-8.06-.25-13.54-1.68-15.04-.29-.3-.54-.34-.7-.34-.34,0-1.27,.31-2.64,3.11-1.97,4.47-2.96,11.06-2.68,16.07,0,.07,.01,.13,.01,.2v.08c.01,.23-.06,.44-.19,.6-.13,.21-.33,.38-.58,.5-.23,.1-.5,.15-.79,.15-1.33,0-3.15-1.01-3.91-2.59-2.41-5.01-2.5-15.22-.89-20.07,.45-1.34,2.1-1.78,3.38-1.41,1.19,.34,2.21,1.46,1.8,3.21-.89,3.74-1.31,8.89-.4,13.84,.36-3.88,1.25-7.93,2.63-11.13,.01-.05,.03-.09,.05-.13,.03-.05,.05-.11,.08-.17,.7-1.55,1.51-2.88,2.43-3.87,1.25-1.34,2.65-2.02,4.16-2.02,1.11,0,2.07,.44,2.85,1.31,2.02,2.26,2.54,7.3,2.49,12.27,2.94-8.87,6.44-13.51,10.27-13.51,1.29,0,2.31,.45,3.05,1.33,2.28,2.75,1.06,9.2-.11,15.44-.82,4.33-1.74,9.24-.76,10.44,.09,.1,.2,.2,.48,.2s.96-.32,1.9-1.38h0c.37-.44,.76-.95,1.17-1.55,.02-.02,.03-.05,.05-.07,.02-.03,.04-.06,.07-.09,1.94-2.81,4.45-7.4,7.62-14.79,.16-.38,.29-.67,.38-.88,.2-.44,.7-.63,1.13-.44,.44,.2,.63,.7,.44,1.13l-.02,.02Z"/>
        <path class="cls-1" d="M485.01,50.22c-3.09,4.64-7.93,11.92-13.01,14.13h-.01c-.07,.05-.16,.08-.25,.11h-.01c-.88,.36-1.77,.55-2.65,.55-3.54,0-8.52-3.41-8.52-10.98,0-8.68,4.91-13.21,9.75-13.21,1.15,0,2.2,.3,2.97,.85,.93,.66,1.44,1.67,1.44,2.83v.11c-.09,4.38-5.2,7.98-8.45,9.54-.07,.78-.11,1.6-.11,2.47,0,2.63,.65,4.54,1.88,5.51,1.02,.8,2.32,.88,3.23,.68,4.61-1.96,9.5-9.31,12.31-13.54,.26-.39,.8-.5,1.19-.24,.4,.26,.5,.8,.24,1.19Zm-18.46,1.85c2.92-1.63,6.36-4.5,6.45-7.45h0c0-.15-.03-.87-.65-1.1-.4-.15-1.04,.04-1.69,.5-1.58,1.1-3.35,3.77-4.11,8.05h0Z"/>
        <path class="cls-1" d="M516.42,50.08c-.09,.2-.21,.49-.37,.86-3,6.99-5.63,12.07-7.98,15.37-.02,.04-.05,.07-.08,.11-.29,.43-.65,.91-1.06,1.37-.03,.03-.06,.07-.09,.11-1.76,2.1-3.36,3.12-4.83,3.12-1.1,0-2.01-.39-2.71-1.17-2.25-2.51-1.57-8.7-.92-14.69,.48-4.41,1.03-9.41-.09-10.65-.14-.16-.3-.23-.54-.23-1.06,0-2.22,1.18-3.32,3.3-.06,.11-.12,.23-.17,.35-1.71,3.57-3.13,8.87-3.82,15.81h0c-.03,.49-.3,.9-.77,1.11-.23,.1-.5,.15-.79,.15-1.33,0-3.15-1.01-3.91-2.59-2.41-5.02-2.5-15.23-.89-20.07,.45-1.34,2.1-1.78,3.38-1.41,1.19,.34,2.21,1.46,1.79,3.21-.99,4.17-1.4,10.1-.04,15.56,.61-4.09,1.49-7.48,2.53-10.21h0s.02-.05,.03-.08c.39-1.04,.88-2.16,1.45-3.18,.02-.04,.03-.07,.05-.1,2.02-3.67,4.38-5.41,6.57-5.41,1.29,0,2.32,.45,3.09,1.33,2.37,2.75,1.43,9.19,.51,15.41-.64,4.33-1.36,9.24-.31,10.45,.09,.11,.23,.21,.52,.21s.96-.32,1.89-1.38h.01c.37-.46,.76-.97,1.18-1.58,.01-.02,.02-.03,.03-.05,.02-.03,.04-.06,.07-.09,1.94-2.81,4.44-7.4,7.62-14.79,.16-.38,.29-.67,.38-.88,.19-.43,.7-.63,1.13-.43,.44,.19,.63,.7,.44,1.13l.02,.03Z"/>
        <path class="cls-1" d="M566.89,31.39c-.43,.21-.94,.03-1.15-.4-1.5-3.13-7.06-4.81-11.54-4.81-7.24,0-12.9,1.75-18.37,3.44-4.5,1.39-9.12,2.82-14.59,3.28-.84,4.26-1.42,9.42-1.42,15.62,0,15.85,4.34,19.18,5.19,19.18,.66,0,1.33-1.67,1.88-3.07,.65-1.81,1.25-3.93,1.83-5.93,.92-3.23,1.88-6.57,3.09-9.31,.19-.44,.7-.63,1.13-.44,.43,.19,.63,.7,.44,1.13-1.17,2.64-2.1,5.92-3.01,9.09-.61,2.12-1.19,4.14-1.81,5.9,0,.02-.01,.04-.02,.06h0c-1.25,3.52-2.68,5.95-4.87,5.95-4.52,0-9.09-7.52-9.09-21.9,0-6.21,.58-11.61,1.45-16.22-3.74-.35-6.87-1.94-9.33-4.75-.31-.35-.28-.9,.08-1.21,.36-.31,.9-.28,1.21,.08,.85,.97,3.31,3.77,8.38,4.19,2.05-9.69,5.29-15.54,6.59-17.6,.88-1.39,2.4-1.98,3.54-1.37,.91,.5,1.6,1.87,.57,4.12-.18,.38-.39,.82-.63,1.31-1.27,2.59-3.34,6.83-4.82,13.41,5.02-.48,9.27-1.79,13.71-3.16,5.59-1.73,11.38-3.52,18.88-3.52,5.12,0,11.26,1.99,13.09,5.78,.21,.43,.03,.94-.4,1.15h0Z"/>
        <path class="cls-1" d="M563.85,50.18l-.5,.86c-1.96,3.34-3.97,6.65-5.98,9.21-.02,.04-.05,.07-.07,.11l-.09,.1s-.05,.05-.07,.08c-2.17,2.69-4.33,4.48-6.43,4.48-1.73,0-3.13-.73-4.17-2.17-1.18-1.63-1.76-4.08-1.95-6.74-.41,1.01-.87,2.03-1.39,3.01-1.7,3.19-4.08,5.9-7.44,5.9-2.84,0-6.16-2.25-6.16-8.59,0-8.04,6.69-15.61,11.88-15.61,2.2,0,3.48,.59,4.32,1.32,.11,.08,.21,.16,.31,.26,0-.02,0-.03,.01-.05,.44-1.32,2.14-1.79,3.45-1.39,1.19,.36,2.18,1.49,1.71,3.21-1.39,5.15-2.38,14.11-.08,16.97,.51,.63,1.13,.91,1.96,.87,.24-.07,.91-.5,2.72-2.66l.09-.11s0,0,.01-.02c2.23-2.83,4.4-6.54,5.88-9.06l.51-.86c.24-.41,.77-.55,1.18-.31,.41,.24,.54,.77,.3,1.18h0Zm-18.31-5.66c-.1-.15-.2-.3-.31-.44-.15-.2-.31-.39-.51-.57-.3-.19-.77-.3-1.55-.09-3.35,.91-8.22,6.65-8.22,13.6,0,3.63,1.4,5.32,2.35,5.32,1.46,0,3.3-2.02,4.37-4.01,.01-.03,.03-.05,.05-.08,1.22-2.32,2.11-4.98,2.75-6.88,.05-.15,.1-.3,.15-.44,.17-2.38,.53-4.65,.92-6.41Z"/>
      </g>
      <path class="cls-1" d="M78.39,34.14c1.35,.68,2.71,1.06,4.2,1.16,.95,0,1.76-.29,2.44-.77,2.84-2.03,5.69-4.16,8.13-6.39l2.17-1.75c.27-.29,0-.67-.54-.87-.68-.39-1.35-.68-2.17-.87-.68-.1-.95,.48-1.35,.77-2.84,2.13-5.69,4.26-9.08,6.1-.95,.48-1.9,.87-2.98,.87-.68,0-1.22,.1-1.35,.58-.27,.48,0,.87,.54,1.16h-.01Z"/>
    </g>
  </g>
</svg>