<?xml version="1.0" encoding="UTF-8"?>
<svg id="Layer_1" data-name="Layer 1" xmlns="http://www.w3.org/2000/svg" viewBox="0 0 612 110.86">
  <defs>
    <style>
      .cls-1 {
        fill: #a19781;
      }
    </style>
  </defs>
  <g id="Layer_1-2" data-name="Layer 1-2">
    <g>
      <g>
        <path class="cls-1" d="M253.33,48.6c-2.1,7.82-8.55,14.15-14.79,20.27-.81,.79-1.61,1.58-2.4,2.36-.29,15.16-1.25,29.09-7.79,29.09-2.24,0-3.75-1.77-4.6-4.17-.94-1.98-.9-4.53-.84-5.4h0c.02-6.3,3.62-11.7,8.2-16.76v-4.65c-.8,.22-1.62,.33-2.48,.33-10.51,0-16.07-9.38-16.07-27.11,0-8.72,1.88-16.92,5.29-23.07,3.11-5.6,7.22-8.95,11-8.95s7.48,3.35,7.62,10.83v.42c0,4.16-1.85,8.03-5.34,11.19-.35,.32-.9,.29-1.21-.06s-.29-.9,.06-1.21c3.13-2.83,4.78-6.26,4.78-9.92v-.33c-.11-3.47-1.9-7.05-4.53-7.05-1.7,0-4.76,2.27-7.43,7.25-3,5.58-4.65,12.89-4.65,20.57,0,8.28,1.12,14.5,3.33,18.47,1.9,3.42,4.64,5.16,8.12,5.16,.54,0,1.05-.03,1.54-.09,.09-10.71,.83-22.87,7.1-22.87,2.4,0,3.77,2.64,3.77,7.25,0,2.67-.9,7.4-2.87,11.48l-.27,.54s-.03,.07-.05,.1h0c-.77,1.48-1.63,2.75-2.58,3.79-.01,.9-.03,1.81-.04,2.71,.38-.38,.77-.75,1.15-1.13,6.08-5.96,12.36-12.12,14.33-19.48,.12-.46,.6-.73,1.05-.61,.46,.12,.73,.59,.61,1.05h-.01Zm-28.7,42.2c0,1.6,.22,3.2,.64,4.54,.17,.37,.37,.69,.61,.95,.43,.46,.97,.68,1.64,.68s2.24-.83,3.05-8.5c.38-3.6,.49-7.85,.53-11.89-3.79,4.42-6.47,8.99-6.47,14.22Zm13.6-46.19s-.95,.15-1.47,5.62c-.32,3.37-.42,7.87-.49,12.72,.27-.33,.53-.7,.78-1.1,2.23-4,3.24-8.97,3.24-11.71s-.54-5.54-2.05-5.54h-.01Z"/>
        <path class="cls-1" d="M283.68,48.68l-.5,.86c-1.96,3.34-3.97,6.65-5.98,9.21-.02,.04-.05,.07-.07,.11l-.09,.1s-.05,.05-.07,.08c-2.17,2.69-4.33,4.48-6.43,4.48-1.73,0-3.13-.73-4.17-2.17-1.18-1.63-1.75-4.08-1.95-6.74-.41,1.01-.87,2.03-1.39,3.01-1.7,3.19-4.08,5.9-7.44,5.9-2.84,0-6.16-2.25-6.16-8.59,0-8.04,6.69-15.61,11.88-15.61,2.21,0,3.48,.59,4.32,1.32,.11,.08,.21,.16,.31,.26,0-.02,0-.03,0-.05,.44-1.32,2.14-1.79,3.45-1.39,1.19,.36,2.18,1.49,1.71,3.21-1.39,5.15-2.39,14.11-.08,16.97,.51,.63,1.13,.91,1.96,.87,.24-.07,.91-.5,2.72-2.66l.09-.11s0,0,0-.02c2.23-2.83,4.4-6.54,5.88-9.06l.51-.86c.24-.41,.77-.55,1.18-.31,.41,.24,.54,.77,.3,1.18h0Zm-18.31-5.66c-.1-.15-.2-.3-.31-.44-.15-.2-.31-.39-.51-.57-.29-.19-.77-.3-1.55-.09-3.35,.91-8.22,6.65-8.22,13.6,0,3.63,1.4,5.32,2.34,5.32,1.46,0,3.3-2.02,4.37-4.01,0-.03,.03-.05,.05-.08,1.22-2.32,2.11-4.98,2.75-6.88,.05-.15,.1-.3,.15-.44,.17-2.38,.53-4.65,.92-6.41h.01Z"/>
        <path class="cls-1" d="M303.33,48.59c-2.37,5.38-4.6,9.82-6.62,13.19-.65,1.08-1.27,2.05-1.87,2.9-.08,.12-.16,.24-.24,.35-.27,.39-.54,.75-.81,1.07,0,0,0,0-.01,.02-1.84,2.31-3.43,3.41-4.88,3.41-3.62,0-7.94-3.4-7.94-19.61,0-8.7,1.9-18.57,5.09-26.43,3.34-8.23,7.51-12.95,11.45-12.95,2.17,0,3.17,1.08,3.62,1.99,.52,1.03,.63,2.44,.42,4.09v.02c-.05,.45-.13,.92-.24,1.43-.01,.08-.03,.17-.06,.25-.02,.09-.04,.17-.06,.26v.02c-2.13,9.08-11.07,23.28-14.65,28.53-.03,.7-.04,1.4-.04,2.11,0,6.97,.71,11.88,2.12,14.59,.71,1.37,1.56,2.06,2.52,2.06,.37,0,.72-.21,1.11-.62,0,0,.01,0,.01,0,2.09-2.54,5.18-7.54,9.51-17.36,.19-.44,.7-.63,1.13-.44,.43,.19,.63,.7,.44,1.13Zm-16.6-4.81c5.07-7.77,12.03-20.38,13.07-27.08h0c.25-1.85-.13-2.63-.35-2.9-.19-.23-.41-.34-.72-.34-.94,0-3.99,3.1-7.12,10.56-1.6,3.82-4.1,10.96-4.89,19.77h.01Z"/>
        <path class="cls-1" d="M323.92,48.72c-3.09,4.64-7.93,11.92-13.01,14.13h-.01c-.07,.05-.16,.08-.25,.11h-.01c-.88,.36-1.77,.55-2.65,.55-3.54,0-8.52-3.41-8.52-10.98,0-8.68,4.91-13.21,9.76-13.21,1.14,0,2.2,.3,2.97,.85,.93,.66,1.44,1.67,1.44,2.83v.11c-.09,4.38-5.2,7.98-8.45,9.54-.07,.78-.11,1.6-.11,2.47,0,2.63,.65,4.54,1.88,5.51,1.02,.8,2.32,.88,3.23,.68,4.61-1.96,9.5-9.31,12.31-13.54,.26-.39,.8-.5,1.19-.24s.5,.8,.24,1.19h0Zm-18.47,1.85c2.92-1.63,6.36-4.5,6.45-7.45h0c0-.15-.03-.87-.65-1.1-.4-.15-1.04,.04-1.69,.5-1.57,1.1-3.35,3.77-4.11,8.05Z"/>
        <path class="cls-1" d="M352.32,48.24c0,.47-.39,.86-.86,.86h-6.69c-4.18,0-5.58-2.45-6.59-4.24-.76-1.34-1.21-2.04-2.23-2.04-1.74,0-3.18,2.88-4.36,5.72,0,0-.01,.03-.02,.05-1.3,3.44-2.36,8.03-2.92,13.73,0,.03,0,.05-.01,.07v.03c-.07,.42-.33,.77-.76,.96-.23,.1-.5,.15-.79,.15-1.33,0-3.15-1.01-3.91-2.59-2.41-5.01-2.5-15.22-.89-20.07,.44-1.34,2.1-1.78,3.38-1.41,1.19,.34,2.21,1.46,1.8,3.21-.99,4.17-1.4,10.1-.04,15.57,.61-4.1,1.49-7.49,2.53-10.21h0s.02-.06,.03-.09c.02-.05,.04-.1,.06-.15,2.26-5.8,5.27-8.51,8-8.51,4.24,0,5.94,2.91,7.3,5.25,1.03,1.78,1.73,2.86,2.92,2.86h3.19c.47,0,.86,.39,.86,.86h0Z"/>
        <path class="cls-1" d="M368.54,47.49c-.41-.24-.94-.1-1.18,.31l-.51,.87c-1.47,2.52-3.64,6.22-5.88,9.06,0,0,0,0,0,.02l-.09,.11c-1.81,2.16-2.48,2.6-2.72,2.66-.82,.03-1.45-.24-1.96-.87-2.31-2.86-1.31-11.82,.08-16.97,.46-1.72-.52-2.85-1.71-3.21-1.31-.39-3.01,.07-3.46,1.39-1.29,3.88-3.06,15.67,.41,20.49,1.04,1.44,2.45,2.17,4.17,2.17,2.1,0,4.26-1.79,6.43-4.48,.02-.03,.05-.05,.07-.08l.09-.1s.05-.07,.08-.11c2.01-2.56,4.02-5.86,5.98-9.21l.5-.86c.24-.41,.11-.94-.3-1.18h.01Z"/>
        <path class="cls-1" d="M399.31,48.68l-.5,.86c-1.96,3.34-3.97,6.65-5.98,9.21-.02,.04-.05,.07-.07,.11l-.09,.1s-.05,.05-.07,.08c-2.17,2.69-4.33,4.48-6.43,4.48-1.73,0-3.13-.73-4.17-2.17-1.18-1.63-1.76-4.08-1.95-6.74-.41,1.01-.87,2.03-1.39,3.01-1.7,3.19-4.08,5.9-7.44,5.9-2.84,0-6.16-2.25-6.16-8.59,0-8.04,6.69-15.61,11.88-15.61,2.2,0,3.48,.59,4.32,1.32,.11,.08,.21,.16,.31,.26,0-.02,0-.03,0-.05,.44-1.32,2.14-1.79,3.45-1.39,1.19,.36,2.18,1.49,1.71,3.21-1.39,5.15-2.38,14.11-.08,16.97,.51,.63,1.13,.91,1.96,.87,.24-.07,.91-.5,2.72-2.66l.09-.11s0,0,0-.02c2.23-2.83,4.4-6.54,5.88-9.06l.51-.86c.24-.41,.77-.55,1.18-.31,.41,.24,.54,.77,.3,1.18h0Zm-18.31-5.66c-.1-.15-.2-.3-.31-.44-.15-.2-.31-.39-.51-.57-.29-.19-.77-.3-1.55-.09-3.35,.91-8.22,6.65-8.22,13.6,0,3.63,1.4,5.32,2.35,5.32,1.46,0,3.3-2.02,4.37-4.01,0-.03,.03-.05,.05-.08,1.22-2.32,2.11-4.98,2.75-6.88,.05-.15,.1-.3,.15-.44,.17-2.38,.53-4.65,.92-6.41Z"/>
      </g>
      <path class="cls-1" d="M352.85,34.38c1.05,.57,2.11,.89,3.27,.97,.74,0,1.37-.24,1.9-.65,2.21-1.71,4.43-3.49,6.33-5.36l1.69-1.47c.21-.24,0-.56-.42-.73-.53-.33-1.05-.57-1.69-.73-.53-.08-.74,.41-1.05,.65-2.21,1.79-4.43,3.58-7.07,5.12-.74,.41-1.48,.73-2.32,.73-.53,0-.95,.08-1.05,.49-.21,.41,0,.73,.42,.98h0Z"/>
    </g>
  </g>
</svg>