<?xml version="1.0" encoding="UTF-8"?>
<svg id="Layer_1" data-name="Layer 1" xmlns="http://www.w3.org/2000/svg" viewBox="0 0 612 110.86">
  <defs>
    <style>
      .cls-1 {
        fill: #a19781;
      }
    </style>
  </defs>
  <g id="Layer_1-2" data-name="Layer 1-2">
    <g>
      <path class="cls-1" d="M255.76,47.59c.31,.35,.28,.9-.07,1.21-2.08,1.86-3.45,6.89-4.76,11.76-1.36,5.03-2.58,9.53-4.67,11.34-.62,.54-1.33,.84-2.13,.84-3.46,0-5.01-5.26-6.79-11.35-2.18-7.45-4.64-15.86-10.65-16.52-.21,10.35-.84,19.24-.95,19.99l-.03,.21c-.29,2.06-.62,4.39-2.68,4.39-.92,0-1.47-.41-1.77-.75-.68-.76-.89-2.05-.66-3.93,.23-1.86,2.64-35,.24-47.26-.5-2.54-1.85-4.18-3.44-4.18-3.81,0-6.87,2.76-8.21,7.38,0,.02,0,.05-.02,.07-1.59,6.77,.35,15.45,2.95,18.79,.29,.38,.22,.91-.15,1.21-.38,.29-.91,.22-1.21-.15-3.38-4.36-5.71-16.31-1.99-23.9,2.01-4.1,5.52-6.27,10.16-6.27,3.02,0,5.52,2.63,6.37,6.7,.7,3.36,1.11,7.85,1.3,12.73,.68-2.64,1.55-5.31,2.55-7.71,.96-2.32,2.21-4.82,3.73-6.92,1.99-2.72,4.44-4.75,7.34-4.75,6.46,0,6.96,6.5,6.96,8.49,0,9.06-8.82,18.89-18.15,21.38,8.6,2.14,11.24,13.17,13.23,21.44,.9,3.77,1.92,8.01,3.14,8.5,1.55-1.68,2.77-6.17,3.87-10.23,1.38-5.11,2.81-10.39,5.28-12.59,.35-.31,.9-.29,1.21,.07h0Zm-28.96-8.63c6.25-2.12,14.42-9.8,14.42-19.65,0-1.82-.26-6.06-2.67-6.06-.89,0-2.37,.71-3.95,2.66-.03,.03-.05,.07-.08,.1-4.26,5.61-7.38,16.22-7.71,22.95h0Z"/>
      <path class="cls-1" d="M276.47,48.65c-3.09,4.64-7.93,11.92-13.01,14.13h0c-.07,.05-.16,.08-.25,.11h0c-.88,.35-1.77,.55-2.65,.55-3.54,0-8.52-3.41-8.52-10.98,0-8.68,4.91-13.21,9.76-13.21,1.15,0,2.2,.3,2.97,.85,.93,.66,1.44,1.67,1.44,2.83v.11c-.09,4.38-5.2,7.98-8.45,9.54-.07,.78-.11,1.6-.11,2.47,0,2.63,.65,4.54,1.88,5.51,1.02,.8,2.32,.88,3.23,.68,4.61-1.96,9.5-9.31,12.31-13.54,.26-.39,.8-.5,1.19-.24,.4,.26,.5,.8,.24,1.19h0Zm-18.47,1.85c2.92-1.63,6.36-4.5,6.45-7.45h0c0-.15-.03-.87-.65-1.1-.4-.15-1.04,.04-1.69,.5-1.57,1.1-3.35,3.77-4.11,8.05Z"/>
      <path class="cls-1" d="M305.18,48.84c-.18,.15-.48,.38-.86,.67-4.18,3.22-7.93,6.41-11.22,9.56-.71,14.94-2.9,33.57-8.52,39.36-1.26,1.29-2.66,1.95-4.17,1.95-2.53,0-6.77-1.33-6.77-10.26s4.81-18.1,14.09-28.04c.13-2.59,.21-5.09,.26-7.4-.4,.96-.84,1.94-1.34,2.88l-.12,.21c-1.7,3.1-4.04,5.68-7.32,5.68-2.84,0-6.16-2.25-6.16-8.59,0-8.06,6.25-14.96,11.37-14.96,1.64,0,2.84,.48,3.68,1.2,.39-1.06,1.27-1.7,2.18-1.82,.72-.1,1.41,.11,1.97,.58,.48,.41,1.06,1.19,1.1,2.63,.09,3.26,.09,8.33-.13,14.14,3.02-2.8,6.38-5.63,10.07-8.47,.38-.29,.66-.51,.83-.65,.37-.3,.91-.24,1.21,.13,.3,.37,.24,.91-.13,1.21h-.02Zm-17.61,15.91c-8.05,9.04-12.22,17.62-12.22,25.35,0,.62,.02,1.26,.08,1.9,.38,2.91,1.75,5.36,3,5.36,.83,0,1.6-.4,2.37-1.21,4.12-4.39,6-18.56,6.78-31.41h-.01Zm.47-15.34c0-1.73-.02-3.26-.05-4.5-.74-1.03-2.04-.87-2.79-.67-2.63,.71-6.79,4.37-6.79,11.18,0,3.63,1.4,5.32,2.35,5.32,1.46,0,3.3-2.02,4.37-4.01,.01-.03,.03-.05,.05-.07,1.23-2.32,2.11-4.98,2.75-6.88,.04-.13,.08-.25,.12-.37h-.01Z"/>
      <path class="cls-1" d="M335.8,48.61l-.5,.86c-1.96,3.34-3.97,6.65-5.98,9.21-.02,.04-.05,.07-.07,.11l-.09,.1s-.05,.05-.07,.08c-2.17,2.69-4.33,4.48-6.43,4.48-1.73,0-3.13-.73-4.17-2.17-1.18-1.64-1.75-4.08-1.95-6.74-.41,1.01-.87,2.03-1.39,3.01-1.7,3.19-4.08,5.9-7.44,5.9-2.84,0-6.16-2.25-6.16-8.59,0-8.04,6.69-15.6,11.88-15.6,2.21,0,3.48,.59,4.32,1.32,.11,.08,.21,.16,.31,.26,0-.02,0-.03,.01-.05,.44-1.32,2.14-1.79,3.45-1.39,1.19,.36,2.18,1.49,1.71,3.21-1.39,5.15-2.39,14.11-.08,16.97,.51,.63,1.13,.91,1.96,.87,.24-.07,.91-.5,2.72-2.66l.09-.11s0,0,.01-.02c2.23-2.83,4.4-6.54,5.88-9.06l.51-.86c.24-.41,.77-.55,1.18-.31,.41,.24,.54,.77,.3,1.18h0Zm-18.31-5.68c-.1-.15-.2-.3-.31-.44-.15-.2-.31-.4-.51-.57-.29-.19-.77-.3-1.55-.09-3.35,.9-8.22,6.65-8.22,13.6,0,3.63,1.4,5.32,2.35,5.32,1.46,0,3.3-2.02,4.37-4.01,.01-.03,.03-.05,.05-.08,1.22-2.32,2.11-4.98,2.75-6.88,.05-.15,.1-.3,.15-.44,.17-2.38,.53-4.65,.92-6.41Z"/>
      <path class="cls-1" d="M355.46,48.52c-2.37,5.38-4.6,9.82-6.62,13.19-.65,1.08-1.27,2.05-1.87,2.9-.08,.12-.16,.24-.24,.35-.27,.39-.54,.75-.81,1.07,0,0,0,0,0,.02-1.84,2.31-3.43,3.41-4.88,3.41-3.62,0-7.94-3.4-7.94-19.61,0-8.7,1.9-18.57,5.09-26.43,3.33-8.23,7.51-12.95,11.44-12.95,2.17,0,3.17,1.08,3.62,1.99,.52,1.03,.63,2.44,.42,4.09v.02c-.05,.45-.13,.92-.24,1.43,0,.08-.03,.17-.06,.25-.02,.09-.04,.17-.06,.26v.02c-2.13,9.07-11.07,23.28-14.65,28.53-.03,.7-.04,1.4-.04,2.11,0,6.97,.71,11.88,2.12,14.59,.71,1.37,1.56,2.06,2.52,2.06,.37,0,.72-.21,1.11-.62,0,0,0,0,0,0,2.09-2.54,5.18-7.54,9.51-17.36,.19-.44,.7-.63,1.13-.44,.43,.19,.63,.7,.44,1.13h0Zm-16.6-4.81c5.07-7.77,12.03-20.38,13.07-27.08h0c.25-1.85-.13-2.63-.35-2.9-.19-.23-.41-.34-.72-.34-.94,0-3.99,3.1-7.12,10.56-1.6,3.82-4.1,10.96-4.89,19.77h0Z"/>
      <path class="cls-1" d="M381.95,48.69c-2.26,3.2-8.37,9.07-13.3,9.47-.65,1.14-1.43,2.1-2.3,2.88-1.76,1.59-3.88,2.4-5.94,2.4-2.44,0-8.11-1.05-8.11-10.77,0-5.49,4.03-13.42,11.33-13.42,2.32,0,4.77,1.59,6.06,4.99,0,.02,.02,.04,.03,.06,.02,.04,.03,.09,.05,.13h0c.54,1.5,.86,3.33,.86,5.52,0,2.42-.4,4.54-1.09,6.33,3.87-.96,8.76-5.4,11.01-8.58,.27-.39,.81-.48,1.2-.2,.39,.27,.48,.81,.21,1.2h0Zm-13.04,1.25c0-2.02-.29-3.68-.78-5-.4-.9-1.29-2.38-2.81-2.38-3.53,0-7.34,3.79-7.34,9.9,0,5.39,1.5,8.61,4.01,8.61,.99,0,1.92-.4,2.65-.89h0c.25-.19,.51-.4,.76-.64,0,0,.03-.02,.03-.03,.02-.02,.04-.04,.06-.06s.04-.04,.07-.06h0c.45-.45,.88-.96,1.27-1.55-.46-.3-.67-.76-.71-1.19-.1-1.04,.75-2.04,1.93-2.26,.1-.02,.21-.02,.3,0,.35-1.28,.55-2.75,.55-4.43v-.02Z"/>
      <path class="cls-1" d="M404.83,48.87c-4.43,3.82-8.7,6.32-12.27,8.31,.86,1.26,1.44,2.71,1.44,4.46,0,2.71-1.65,7.83-7.87,7.83-2.62,0-4.19-2.26-4.19-4.44,0-2.94,2.05-4.81,5.2-6.74-.71-.68-1.52-1.29-2.34-1.92-2.61-1.99-5.58-4.25-5.58-9.03,0-3.37,3.53-8.07,9.29-8.07,3.58,0,6.43,1.38,7.62,3.7,0,0,0,.02,0,.03,0,.03,.03,.06,.04,.09,.03,.09,.05,.18,.05,.27v.12s0,.07-.02,.11c0,.02,0,.04-.02,.06,0,.02,0,.04-.02,.06,0,.02-.02,.05-.03,.07s-.03,.04-.04,.07c0,.02-.03,.04-.04,.06-.02,.02-.03,.04-.05,.06-.03,.03-.06,.06-.1,.09-.02,0-.04,.03-.06,.04-.04,.03-.08,.05-.13,.06-.02,0-.04,.02-.06,.02-.09,.03-.18,.05-.28,.05h-.12s-.07,0-.11-.02c-.04,0-.07-.02-.11-.04-.03,0-.06-.03-.09-.04-.02,0-.03-.02-.05-.03s-.04-.03-.06-.04c0,0,0,0-.02-.02-1.31-1.05-2.25-1.69-4.06-1.69-4.25,0-6.01,3.12-6.01,4.8,0,2.58,2.04,4.38,4.19,6.28,.85,.75,1.74,1.54,2.54,2.41,3.55-1.98,7.83-4.44,12.23-8.24,.36-.31,.9-.27,1.21,.09,.31,.36,.27,.9-.09,1.21v-.03Zm-15.14,15.11c0-1.87-.54-3.25-1.39-4.4-2.88,1.73-4.64,3.25-4.64,5.44,0,1.32,.87,2.72,2.47,2.72h.2c2.08-.12,3.35-2,3.35-3.75h0Z"/>
    </g>
  </g>
</svg>