<?xml version="1.0" encoding="UTF-8"?>
<svg id="Layer_1" data-name="Layer 1" xmlns="http://www.w3.org/2000/svg" viewBox="0 0 612 110.86">
  <defs>
    <style>
      .cls-1 {
        fill: #a19781;
      }
    </style>
  </defs>
  <g id="Layer_1-2" data-name="Layer 1-2">
    <g>
      <path class="cls-1" d="M204.52,48.72v1.13c0,1.68-.1,10.49-2.01,18.82-2.48,10.76-6.88,16.21-13.07,16.21h-.09c-1.92,0-3.75-.75-5.13-2.12-1.28-1.27-2.1-2.97-2.34-4.8,0-.12-.03-.24-.04-.36,0-.11-.02-.22-.02-.33,0-.14,0-.27,0-.41,0-.48,.38-.86,.86-.86s.86,.38,.86,.86v.32c0,.08,0,.16,.02,.25,.25,2.75,2.33,4.64,5.24,4.64,8.3,0,10.5-21.48,10.5-32.83,0-4.08-.09-9.28-.76-13.33-.47-2.85-1.43-6.24-3.3-6.24-2.43,0-4.6,2.95-5.11,6.63v.05c-.04,.31-.07,.63-.09,.94v.04c-.01,.21-.02,.42-.02,.64,0,.07,0,.13-.02,.2-.13,4.18,.97,8.56,2.75,11.2,.27,.39,.16,.93-.23,1.19-.39,.27-.92,.16-1.19-.23-2.11-3.12-3.38-8.38-3-13.27,.01-.17,.03-.35,.05-.52,.22-2.12,.76-4.16,1.68-5.91,1.6-3.03,4.16-4.63,7.4-4.63,1.23,0,2.32,.48,3.25,1.41,3.56,3.6,3.91,13.28,3.83,21.32h-.01Z"/>
      <path class="cls-1" d="M264.6,45.25c-.43,.21-.94,.03-1.15-.4-1.5-3.13-7.06-4.81-11.54-4.81-7.24,0-12.9,1.75-18.37,3.44-4.5,1.39-9.12,2.82-14.59,3.28-.84,4.26-1.42,9.42-1.42,15.62,0,15.85,4.34,19.18,5.19,19.18,.66,0,1.33-1.68,1.88-3.07,.65-1.81,1.25-3.93,1.83-5.93,.92-3.23,1.88-6.57,3.09-9.31,.19-.44,.7-.63,1.13-.44,.43,.19,.63,.7,.44,1.13-1.17,2.64-2.1,5.92-3.01,9.09-.61,2.12-1.19,4.14-1.81,5.9,0,.02,0,.04-.02,.06h0c-1.25,3.52-2.68,5.95-4.87,5.95-4.52,0-9.09-7.52-9.09-21.9,0-6.21,.58-11.61,1.45-16.22-3.74-.35-6.87-1.94-9.33-4.75-.31-.35-.28-.9,.08-1.21,.35-.31,.9-.28,1.21,.08,.85,.97,3.31,3.77,8.38,4.19,2.05-9.69,5.29-15.54,6.59-17.6,.88-1.39,2.4-1.98,3.54-1.37,.91,.5,1.6,1.87,.57,4.12-.18,.38-.39,.82-.63,1.31-1.27,2.59-3.34,6.83-4.82,13.41,5.02-.48,9.27-1.79,13.71-3.16,5.6-1.73,11.38-3.52,18.88-3.52,5.13,0,11.26,1.99,13.09,5.78,.21,.43,.03,.94-.4,1.15h-.01Z"/>
      <path class="cls-1" d="M247.73,64.03l-.5,.86c-1.96,3.34-3.97,6.65-5.98,9.21-.02,.04-.05,.07-.08,.11l-.09,.1s-.04,.05-.07,.08c-2.17,2.69-4.33,4.48-6.43,4.48-1.73,0-3.13-.73-4.17-2.17-3.47-4.82-1.7-16.61-.41-20.49,.44-1.32,2.14-1.79,3.46-1.39,1.19,.36,2.17,1.49,1.71,3.21-1.4,5.15-2.39,14.11-.08,16.97,.51,.63,1.13,.91,1.96,.87,.24-.07,.91-.5,2.72-2.66l.09-.11s0,0,0-.02c2.23-2.83,4.4-6.54,5.88-9.06l.51-.86c.24-.41,.77-.54,1.18-.31,.41,.24,.54,.77,.3,1.18h-.01Zm-16.6-15.12c.23-1.02,1.88-1.51,3.67-1.1,1.79,.42,3.05,1.58,2.81,2.6-.23,1.02-1.88,1.51-3.67,1.09s-3.05-1.58-2.81-2.6h0Z"/>
      <path class="cls-1" d="M279.14,63.94c-.09,.2-.21,.49-.37,.86-3,6.99-5.64,12.07-7.98,15.37-.02,.03-.05,.07-.08,.11-.29,.43-.65,.91-1.06,1.37-.03,.03-.06,.07-.09,.11-1.76,2.1-3.36,3.12-4.83,3.12-1.1,0-2.01-.39-2.71-1.17-2.25-2.51-1.57-8.7-.92-14.69,.48-4.41,1.03-9.41-.09-10.65-.14-.16-.3-.23-.54-.23-1.06,0-2.22,1.18-3.32,3.3-.06,.11-.12,.23-.17,.35-1.71,3.57-3.14,8.87-3.82,15.81h0c-.03,.49-.3,.9-.77,1.11-.23,.1-.5,.15-.79,.15-1.33,0-3.15-1.01-3.91-2.59-2.41-5.02-2.5-15.23-.89-20.07,.45-1.34,2.1-1.78,3.38-1.41,1.19,.34,2.21,1.46,1.8,3.21-.99,4.17-1.4,10.1-.04,15.56,.61-4.09,1.49-7.48,2.53-10.21h0s.02-.05,.03-.08c.39-1.04,.88-2.16,1.45-3.18,.02-.03,.03-.07,.05-.1,2.02-3.67,4.38-5.41,6.57-5.41,1.29,0,2.32,.45,3.09,1.33,2.37,2.75,1.43,9.19,.51,15.41-.64,4.33-1.36,9.24-.31,10.45,.09,.11,.23,.21,.52,.21s.96-.32,1.89-1.38h.01c.37-.46,.76-.97,1.18-1.58,.01-.02,.02-.03,.03-.05,.02-.03,.04-.06,.07-.09,1.94-2.81,4.44-7.4,7.62-14.79,.16-.38,.29-.67,.38-.88,.19-.43,.7-.63,1.13-.44,.44,.19,.63,.7,.44,1.13v.04Z"/>
      <path class="cls-1" d="M299.78,64.08c-3.09,4.64-7.93,11.92-13.01,14.13h-.01c-.07,.05-.16,.08-.25,.11h-.01c-.88,.35-1.77,.55-2.65,.55-3.54,0-8.52-3.41-8.52-10.98,0-8.68,4.91-13.21,9.76-13.21,1.15,0,2.2,.3,2.97,.85,.93,.66,1.44,1.67,1.44,2.83v.11c-.09,4.38-5.2,7.98-8.45,9.54-.07,.78-.11,1.6-.11,2.47,0,2.63,.65,4.54,1.88,5.51,1.02,.8,2.32,.88,3.23,.68,4.61-1.96,9.5-9.31,12.31-13.54,.26-.39,.8-.5,1.19-.24,.4,.26,.5,.8,.24,1.19h-.01Zm-18.47,1.85c2.92-1.63,6.36-4.5,6.45-7.45h0c0-.15-.03-.87-.65-1.1-.4-.15-1.04,.04-1.69,.5-1.57,1.1-3.35,3.77-4.11,8.05Z"/>
      <path class="cls-1" d="M328.18,63.6c0,.48-.39,.86-.86,.86h-6.69c-4.18,0-5.57-2.45-6.59-4.24-.76-1.34-1.21-2.04-2.23-2.04-1.74,0-3.18,2.88-4.36,5.72,0,0-.01,.03-.02,.05-1.3,3.44-2.36,8.03-2.92,13.73,0,.03,0,.05-.01,.07v.03c-.07,.42-.33,.77-.76,.96-.23,.1-.5,.15-.79,.15-1.33,0-3.15-1.01-3.91-2.59-2.41-5.01-2.5-15.22-.89-20.07,.44-1.34,2.1-1.78,3.38-1.41,1.19,.34,2.21,1.46,1.79,3.21-.99,4.17-1.4,10.1-.04,15.57,.61-4.1,1.49-7.49,2.53-10.21h0s.02-.06,.03-.09c.02-.05,.04-.1,.06-.15,2.27-5.8,5.27-8.51,8-8.51,4.24,0,5.94,2.91,7.3,5.25,1.03,1.78,1.73,2.86,2.92,2.86h3.19c.47,0,.86,.39,.86,.86h0Z"/>
      <path class="cls-1" d="M358.54,64.04l-.5,.86c-1.96,3.34-3.97,6.65-5.98,9.21-.02,.04-.05,.07-.07,.11l-.09,.1s-.05,.05-.07,.08c-2.17,2.69-4.33,4.48-6.43,4.48-1.73,0-3.13-.73-4.17-2.17-1.18-1.64-1.75-4.08-1.95-6.74-.41,1.01-.87,2.03-1.39,3.01-1.7,3.19-4.08,5.9-7.44,5.9-2.84,0-6.16-2.25-6.16-8.59,0-8.04,6.69-15.6,11.88-15.6,2.21,0,3.48,.59,4.32,1.32,.11,.08,.21,.16,.31,.26,0-.02,0-.03,0-.05,.44-1.32,2.14-1.79,3.45-1.39,1.19,.36,2.18,1.49,1.71,3.21-1.39,5.15-2.39,14.11-.08,16.97,.51,.63,1.13,.91,1.96,.87,.24-.07,.91-.5,2.72-2.66l.09-.11s0,0,0-.02c2.23-2.83,4.4-6.54,5.88-9.06l.51-.86c.24-.41,.77-.55,1.18-.31,.41,.24,.54,.77,.3,1.18Zm-18.31-5.68c-.1-.15-.2-.3-.31-.44-.15-.2-.31-.4-.51-.57-.29-.19-.77-.3-1.55-.09-3.35,.9-8.22,6.65-8.22,13.6,0,3.63,1.4,5.32,2.35,5.32,1.46,0,3.3-2.02,4.37-4.01,0-.03,.03-.05,.05-.08,1.22-2.32,2.11-4.98,2.75-6.88,.05-.15,.1-.3,.15-.44,.17-2.38,.53-4.65,.92-6.41Z"/>
      <path class="cls-1" d="M386.93,63.6c0,.48-.39,.86-.86,.86h-6.69c-4.18,0-5.57-2.45-6.59-4.24-.76-1.34-1.21-2.04-2.23-2.04-1.74,0-3.18,2.88-4.36,5.72,0,0,0,.03-.02,.05-1.3,3.44-2.36,8.03-2.92,13.73,0,.03,0,.05,0,.07v.03c-.07,.42-.33,.77-.76,.96-.23,.1-.5,.15-.79,.15-1.33,0-3.15-1.01-3.91-2.59-2.41-5.01-2.5-15.22-.89-20.07,.44-1.34,2.1-1.78,3.38-1.41,1.19,.34,2.21,1.46,1.8,3.21-.99,4.17-1.4,10.1-.04,15.57,.61-4.1,1.49-7.49,2.53-10.21h0s.02-.06,.03-.09c.02-.05,.04-.1,.06-.15,2.27-5.8,5.27-8.51,8-8.51,4.24,0,5.94,2.91,7.3,5.25,1.03,1.78,1.73,2.86,2.92,2.86h3.19c.47,0,.86,.39,.86,.86h0Z"/>
      <path class="cls-1" d="M403.46,64.03l-.5,.86c-1.96,3.34-3.97,6.65-5.98,9.21-.02,.04-.05,.07-.08,.11l-.09,.1s-.04,.05-.07,.08c-2.17,2.69-4.33,4.48-6.43,4.48-1.73,0-3.13-.73-4.17-2.17-3.47-4.82-1.7-16.61-.41-20.49,.44-1.32,2.14-1.79,3.46-1.39,1.19,.36,2.17,1.49,1.71,3.21-1.4,5.15-2.39,14.11-.08,16.97,.51,.63,1.13,.91,1.96,.87,.24-.07,.91-.5,2.72-2.66l.09-.11s0,0,0-.02c2.23-2.83,4.4-6.54,5.88-9.06l.51-.86c.24-.41,.77-.54,1.18-.31,.41,.24,.54,.77,.3,1.18h-.01Zm-16.6-15.12c.23-1.02,1.88-1.51,3.67-1.1,1.79,.42,3.05,1.58,2.81,2.6-.23,1.02-1.88,1.51-3.67,1.09s-3.05-1.58-2.81-2.6h0Z"/>
      <path class="cls-1" d="M430.03,64.12c-2.26,3.2-8.37,9.07-13.3,9.47-.65,1.14-1.43,2.1-2.3,2.88-1.76,1.59-3.88,2.4-5.94,2.4-2.44,0-8.11-1.05-8.11-10.77,0-5.49,4.03-13.42,11.33-13.42,2.32,0,4.77,1.59,6.06,4.99,0,.02,.02,.04,.03,.06,.02,.04,.03,.09,.05,.13h0c.54,1.5,.86,3.33,.86,5.52,0,2.42-.4,4.54-1.09,6.33,3.87-.96,8.76-5.4,11.01-8.58,.27-.39,.81-.48,1.2-.2,.39,.27,.48,.81,.21,1.2h0Zm-13.04,1.25c0-2.02-.29-3.68-.78-5-.4-.9-1.29-2.38-2.81-2.38-3.53,0-7.34,3.79-7.34,9.9,0,5.39,1.5,8.61,4.01,8.61,.99,0,1.92-.4,2.65-.89h0c.25-.19,.51-.4,.76-.64,0,0,.03-.02,.03-.03,.02-.02,.04-.04,.06-.06s.04-.04,.07-.06h0c.45-.45,.88-.96,1.27-1.55-.46-.3-.67-.76-.71-1.19-.1-1.04,.75-2.04,1.93-2.26,.1-.02,.21-.02,.3,0,.35-1.28,.55-2.75,.55-4.43v-.02Z"/>
    </g>
  </g>
</svg>