<?xml version="1.0" encoding="UTF-8"?>
<svg id="Layer_2" data-name="Layer 2" xmlns="http://www.w3.org/2000/svg" viewBox="0 0 321.79 59.09">
  <defs>
    <style>
      .cls-1 {
        fill: #fff;
      }
    </style>
  </defs>
  <g id="Layer_1-2" data-name="Layer 1">
    <g>
      <g>
        <path class="cls-1" d="M54.85,37.15c.31,.36,.26,.9-.11,1.21-2.49,2.08-4.63,6.16-6.52,9.75-.74,1.41-1.43,2.72-2.11,3.88-.01,.03-.03,.05-.05,.08-1.33,2.39-3.96,6.91-7.3,6.91-2.83,0-5.7-4.23-5.7-12.32,0-4.66,.71-13.32,1.33-20.97,.38-4.66,.71-8.68,.82-11.06,.32-7.15-.6-9.69-1.43-10.56-.29-.31-.62-.45-1.03-.45-1.12,0-2.61,2.86-3.32,4.23-.02,.04-.04,.07-.06,.11-1.38,2.92-2.85,7.11-4.37,13.05-2.76,10.8-4.64,23.47-5.65,30.27-.35,2.36-.59,4-.76,4.82,0,.03-.01,.06-.02,.08-.01,.05-.02,.1-.03,.14h0s0,.01,0,.02c-.33,1.43-.91,2.63-2.39,2.63-.92,0-1.47-.41-1.77-.75-.68-.76-.89-2.05-.65-3.93,.23-1.86,2.63-35.01,.24-47.26-.5-2.54-1.85-4.18-3.44-4.18-3.81,0-6.88,2.76-8.21,7.38,0,.02-.01,.05-.02,.07-1.59,6.77,.35,15.45,2.95,18.79,.29,.38,.22,.91-.15,1.21s-.91,.22-1.21-.15C.5,25.81-1.82,13.86,1.9,6.27,3.91,2.17,7.42,0,12.06,0c3.02,0,5.52,2.63,6.37,6.7,1.57,7.49,1.62,20.62,1.31,31.22,.96-5.55,2.17-11.69,3.61-17.33,1.45-5.65,2.95-10.11,4.53-13.42,0,0,0,0,0,0,.01-.03,.03-.07,.04-.1,.03-.06,.06-.11,.09-.17,2.26-4.63,4.67-6.9,7.29-6.9,1.08,0,2.01,.41,2.75,1.22,3.34,3.65,2.3,15.32,1.2,27.67-.94,10.54-2,22.48,.63,25.35,.36,.39,.77,.58,1.28,.58,1.05,0,2.29-1.68,3.55-3.82,.68-1.16,1.36-2.46,2.01-3.69,1.96-3.73,4.19-7.97,6.94-10.27,.36-.31,.9-.26,1.21,.11Z"/>
        <path class="cls-1" d="M86.62,38.14l-.5,.86c-1.96,3.34-3.97,6.65-5.98,9.21-.02,.04-.05,.07-.08,.11l-.09,.11s-.04,.05-.07,.08c-2.16,2.69-4.33,4.48-6.42,4.48-1.73,0-3.13-.73-4.17-2.18-1.85-2.57-2.21-7.12-1.95-11.4-1.22,3.05-2.47,5.85-3.74,8.11-.02,.05-.04,.09-.07,.14-.09,.15-.18,.3-.27,.44-1.75,2.98-3.52,4.88-5.24,4.88s-3.13-.73-4.17-2.18c-3.48-4.82-1.7-16.61-.41-20.49,.45-1.34,2.03-1.77,3.25-1.41,1.15,.35,2.1,1.48,1.62,3.23-1.43,5.27-2.14,14.3-.05,17.03,.38,.5,.83,.74,1.39,.76,.15-.06,.8-.46,2.4-3.14,0,0,0-.01,.01-.02,.51-.91,1.07-2.01,1.68-3.33,2.08-4.49,3.95-9.8,4.96-12.64l.16-.45v-.04c.47-1.33,2.05-1.76,3.26-1.39,1.15,.35,2.1,1.48,1.63,3.23-1.42,5.26-2.17,14.06,.14,16.93,.53,.66,1.18,.95,2.02,.91,.24-.06,.91-.5,2.72-2.66l.09-.11s0-.01,.01-.01c2.23-2.83,4.4-6.54,5.88-9.06l.51-.86c.24-.41,.77-.54,1.18-.3,.41,.24,.54,.77,.3,1.17Z"/>
        <path class="cls-1" d="M107.25,38.18c-3.09,4.64-7.93,11.92-13.01,14.13,0,0,0,0-.01,0-.07,.05-.16,.08-.25,.11,0,0,0,0-.01,0-.88,.35-1.77,.55-2.65,.55-3.54,0-8.52-3.41-8.52-10.98,0-8.68,4.91-13.21,9.76-13.21,1.15,0,2.2,.3,2.97,.85,.93,.66,1.44,1.67,1.44,2.83v.11c-.09,4.38-5.2,7.98-8.45,9.54-.07,.78-.11,1.6-.11,2.47,0,2.63,.65,4.54,1.88,5.51,1.02,.8,2.32,.88,3.23,.68,4.61-1.96,9.5-9.31,12.31-13.54,.26-.39,.8-.5,1.19-.24,.4,.26,.5,.8,.24,1.19Zm-18.47,1.85c2.92-1.63,6.36-4.5,6.45-7.45h0c0-.15-.03-.87-.65-1.1-.4-.15-1.04,.04-1.69,.5-1.57,1.1-3.35,3.77-4.11,8.05Z"/>
        <path class="cls-1" d="M130.14,38.4c-4.43,3.82-8.7,6.32-12.27,8.31,.86,1.26,1.44,2.71,1.44,4.46,0,2.71-1.65,7.83-7.87,7.83-2.62,0-4.19-2.26-4.19-4.44,0-2.94,2.05-4.81,5.2-6.74-.71-.68-1.52-1.29-2.34-1.92-2.61-1.99-5.58-4.25-5.58-9.03,0-3.37,3.53-8.07,9.29-8.07,3.58,0,6.43,1.38,7.62,3.7,0,0,0,.02,.01,.03,.01,.03,.03,.06,.04,.09,.03,.09,.05,.18,.05,.27,0,.04,0,.08,0,.12,0,.04-.01,.07-.02,.11,0,.02-.01,.04-.02,.06,0,.02-.01,.04-.02,.06,0,.02-.02,.05-.03,.07-.01,.02-.03,.04-.04,.07-.01,.02-.03,.04-.04,.06-.02,.02-.03,.04-.05,.06-.03,.03-.06,.06-.1,.09-.02,.01-.04,.03-.06,.04-.04,.03-.08,.05-.13,.06-.02,0-.04,.02-.06,.02-.09,.03-.18,.05-.28,.05-.04,0-.08,0-.12,0-.04,0-.07-.01-.11-.02-.04,0-.07-.02-.11-.04-.03-.01-.06-.03-.09-.04-.02,0-.03-.02-.05-.03-.02-.01-.04-.03-.06-.04,0,0-.01-.01-.02-.02-1.31-1.05-2.25-1.69-4.06-1.69-4.25,0-6.01,3.12-6.01,4.8,0,2.58,2.04,4.38,4.19,6.28,.85,.75,1.74,1.54,2.54,2.41,3.55-1.98,7.83-4.44,12.23-8.24,.36-.31,.9-.27,1.21,.09,.31,.36,.27,.9-.09,1.21Zm-15.14,15.11c0-1.87-.54-3.25-1.39-4.4-2.88,1.73-4.64,3.25-4.64,5.44,0,1.32,.87,2.72,2.47,2.72,.07,0,.14,0,.2,0,2.08-.12,3.35-2,3.35-3.75Z"/>
        <path class="cls-1" d="M180.43,19.35c-.43,.21-.94,.03-1.15-.4-1.5-3.13-7.06-4.81-11.54-4.81-7.24,0-12.9,1.75-18.37,3.44-4.5,1.39-9.12,2.82-14.59,3.28-.84,4.26-1.42,9.42-1.42,15.62,0,15.85,4.34,19.18,5.19,19.18,.66,0,1.33-1.68,1.88-3.07,.65-1.81,1.25-3.93,1.83-5.93,.92-3.23,1.88-6.57,3.09-9.31,.19-.44,.7-.63,1.13-.44,.43,.19,.63,.7,.44,1.13-1.17,2.64-2.1,5.92-3.01,9.09-.61,2.12-1.19,4.14-1.81,5.9,0,.02-.01,.04-.02,.06h0c-1.25,3.52-2.68,5.95-4.87,5.95-4.52,0-9.09-7.52-9.09-21.9,0-6.21,.58-11.61,1.45-16.22-3.74-.35-6.87-1.94-9.33-4.75-.31-.35-.28-.9,.08-1.21,.35-.31,.9-.28,1.21,.08,.85,.97,3.31,3.77,8.38,4.19,2.05-9.69,5.29-15.54,6.59-17.6,.88-1.39,2.4-1.98,3.54-1.37,.91,.5,1.6,1.87,.57,4.12-.18,.38-.39,.82-.63,1.31-1.27,2.59-3.34,6.83-4.82,13.41,5.02-.48,9.27-1.79,13.71-3.16,5.6-1.73,11.38-3.52,18.88-3.52,5.13,0,11.26,1.99,13.09,5.78,.21,.43,.03,.94-.4,1.15Z"/>
        <path class="cls-1" d="M175.33,37.7c0,.48-.39,.86-.86,.86h-3.19c-1.28,0-2.45,0-3.47,0h-.03c-4.18,0-5.57-2.45-6.59-4.24-.76-1.34-1.21-2.04-2.23-2.04-1.74,0-3.18,2.88-4.36,5.72,0,.01-.01,.03-.02,.05-1.3,3.44-2.36,8.03-2.92,13.73,0,.03,0,.05-.01,.07,0,.01,0,.03,0,.03-.07,.42-.33,.77-.76,.96-.23,.1-.5,.15-.79,.15-1.33,0-3.15-1.01-3.91-2.59-2.41-5.01-2.5-15.22-.89-20.07,.44-1.34,2.1-1.78,3.38-1.41,1.19,.34,2.21,1.46,1.8,3.21-.99,4.17-1.4,10.1-.04,15.57,.61-4.1,1.49-7.49,2.53-10.21h0s.02-.06,.03-.09c.02-.05,.04-.1,.06-.15,2.27-5.8,5.27-8.51,8-8.51,4.24,0,5.94,2.91,7.3,5.25,1.03,1.78,1.73,2.86,2.92,2.86h3.19c.47,0,.86,.39,.86,.86Z"/>
        <path class="cls-1" d="M201.79,38.22c-2.26,3.2-8.37,9.07-13.3,9.47-.65,1.14-1.43,2.1-2.3,2.88-1.76,1.59-3.88,2.4-5.94,2.4-2.44,0-8.11-1.05-8.11-10.77,0-5.49,4.03-13.42,11.33-13.42,2.32,0,4.77,1.59,6.06,4.99,0,.02,.02,.04,.03,.06,.02,.04,.03,.09,.05,.13,0,0,0,0,0,.01,.54,1.49,.86,3.32,.86,5.51,0,2.42-.4,4.54-1.09,6.33,3.87-.96,8.76-5.4,11.01-8.58,.28-.39,.81-.48,1.2-.2s.48,.81,.21,1.2Zm-13.04,1.26c0-2.02-.29-3.68-.78-5-.4-.9-1.29-2.38-2.81-2.38-3.53,0-7.34,3.79-7.34,9.9,0,5.39,1.5,8.61,4.01,8.61,.99,0,1.92-.4,2.65-.89,0,0,0,0,.01,0,.25-.19,.51-.4,.76-.64,.01-.01,.03-.02,.03-.03,.02-.02,.04-.04,.06-.06,.02-.02,.04-.04,.07-.06,0,0,0,0,.01,0,.45-.45,.88-.96,1.27-1.55-.46-.3-.67-.76-.71-1.19-.1-1.04,.75-2.04,1.93-2.26,.1-.02,.21-.02,.3,0,.35-1.28,.55-2.75,.55-4.43Z"/>
        <path class="cls-1" d="M274.64,37.55c.14,.46-.11,.94-.57,1.07-3.99,1.22-7.87,2.45-11.38,3.75-.53,2.28-1.17,4.42-1.91,6.39-2.47,6.59-5.66,10.23-8.98,10.25h-.07c-1.99,0-3.34-.47-4.24-1.03-.39-.24-.69-.5-.93-.74-.78-.8-1.19-1.83-1.15-2.92,.16-5.02,5-8.66,12.25-11.81,1.1-4.32,1.79-9.3,1.79-14.47,0-12.53-3.65-24.38-7.51-24.38-1.5,0-2.81,.9-3.7,2.55-.03,.05-.06,.1-.1,.14-3.08,6.68-4.21,20.21-5.28,37.18,0,.04,0,.08-.02,.12-.26,5.98-.58,10.3-.65,10.81l-.03,.21c-.29,2.06-.62,4.39-2.68,4.39-.92,0-1.47-.41-1.78-.75-.68-.77-.89-2.05-.65-3.94,.23-1.86,2.63-35,.24-47.26-.5-2.54-1.85-4.18-3.44-4.18-3.81,0-6.88,2.76-8.21,7.38,0,.02-.01,.05-.02,.07-1.59,6.77,.35,15.45,2.95,18.79,.29,.38,.23,.92-.15,1.21-.38,.29-.92,.22-1.21-.15-3.38-4.35-5.7-16.3-1.99-23.89,2.01-4.1,5.52-6.27,10.16-6.27,3.02,0,5.52,2.63,6.37,6.7,.76,3.6,1.16,8.49,1.34,13.78,.83-6.42,1.94-11.53,3.58-15.05,.01-.04,.03-.08,.05-.12,0-.01,.01-.03,.02-.04,0,0,0-.01,0-.02,1.64-3.41,3.81-5.25,6.75-5.25,3.7,0,6.73,3.22,8.75,9.3,1.73,5.21,2.34,11.27,2.34,15.22,0,5.53-.52,10.91-1.49,15.76,3.24-1.16,6.76-2.28,10.44-3.4,.45-.14,.93,.12,1.07,.57Zm-27.51,16.84c-.02,.62,.21,1.19,.66,1.66,.16,.16,.34,.31,.54,.44,.67,.33,1.38,.25,2.19-.24,2.32-1.41,4.79-5.73,6.54-11.56-5.88,2.72-9.82,5.82-9.94,9.7Z"/>
        <path class="cls-1" d="M290.91,36.95c-.41-.24-.94-.1-1.18,.31l-.51,.86c-1.47,2.52-3.64,6.23-5.88,9.06,0,0-.01,.01-.01,.02l-.09,.11c-1.81,2.16-2.48,2.6-2.72,2.66-.82,.03-1.45-.24-1.96-.87-2.31-2.86-1.31-11.82,.08-16.97,.46-1.72-.52-2.85-1.71-3.21-1.31-.4-3.01,.07-3.46,1.39-1.29,3.88-3.06,15.67,.41,20.49,1.04,1.44,2.45,2.17,4.17,2.17,2.1,0,4.26-1.79,6.43-4.48,.02-.03,.05-.05,.07-.08l.09-.1s.05-.07,.08-.11c2.01-2.56,4.02-5.86,5.98-9.21l.5-.86c.24-.41,.11-.94-.3-1.18Z"/>
        <path class="cls-1" d="M321.67,38.14l-.5,.86c-1.96,3.34-3.97,6.65-5.98,9.21-.02,.04-.05,.07-.07,.11l-.09,.1s-.05,.05-.07,.08c-2.17,2.69-4.33,4.48-6.43,4.48-1.73,0-3.13-.73-4.17-2.17-1.18-1.64-1.76-4.08-1.95-6.74-.41,1.01-.87,2.03-1.39,3.01-1.7,3.19-4.08,5.9-7.44,5.9-2.84,0-6.16-2.25-6.16-8.59,0-8.04,6.69-15.6,11.88-15.6,2.2,0,3.48,.59,4.32,1.32,.11,.08,.21,.16,.31,.26,0-.02,0-.03,.01-.05,.44-1.32,2.14-1.79,3.45-1.39,1.19,.36,2.18,1.49,1.71,3.21-1.39,5.15-2.38,14.11-.08,16.97,.51,.63,1.13,.91,1.96,.87,.24-.07,.91-.5,2.72-2.66l.09-.11s0-.01,.01-.02c2.23-2.83,4.4-6.54,5.88-9.06l.51-.86c.24-.41,.77-.55,1.18-.31,.41,.24,.54,.77,.3,1.18Zm-18.31-5.68c-.1-.15-.2-.3-.31-.44-.15-.2-.31-.4-.51-.57-.29-.19-.77-.3-1.55-.09-3.35,.9-8.22,6.65-8.22,13.6,0,3.63,1.4,5.32,2.35,5.32,1.46,0,3.3-2.02,4.37-4.01,.01-.03,.03-.05,.05-.08,1.22-2.32,2.11-4.98,2.75-6.88,.05-.15,.1-.3,.15-.44,.17-2.38,.53-4.65,.92-6.41Z"/>
      </g>
      <path class="cls-1" d="M275.24,24.07c1.05,.57,2.11,.89,3.27,.97,.74,0,1.37-.24,1.9-.65,2.21-1.71,4.43-3.49,6.33-5.36l1.69-1.47c.21-.24,0-.56-.42-.73-.53-.33-1.05-.57-1.69-.73-.53-.08-.74,.41-1.05,.65-2.21,1.79-4.43,3.58-7.07,5.12-.74,.41-1.48,.73-2.32,.73-.53,0-.95,.08-1.05,.49-.21,.41,0,.73,.42,.98Z"/>
    </g>
  </g>
</svg>