<?xml version="1.0" encoding="UTF-8"?>
<svg id="Layer_1" data-name="Layer 1" xmlns="http://www.w3.org/2000/svg" viewBox="0 0 612 110.86">
  <defs>
    <style>
      .cls-1 {
        fill: #a19781;
      }
    </style>
  </defs>
  <g id="Layer_1-2" data-name="Layer 1-2">
    <g>
      <g>
        <path class="cls-1" d="M78.07,77.75c7.63-.29,13.83-3.38,18.58-9.29,.79-.94,1.44-2.02,1.87-3.17,.5-1.37,.58-2.74-.58-3.89-.36-.36-1.01-.79-.5-1.3,.5-.43,.94,.22,1.3,.58,2.16,1.73,2.95,3.89,2.23,6.62-.5,2.23-1.66,4.1-3.1,5.76-4.1,4.54-9.22,7.13-15.19,8.14-3.38,.58-6.84,.65-10.23-.29-.79-.14-1.51-.5-2.16-.94-1.08-.65-1.8-1.51-1.94-2.81-.14-.5-.29-1.08-.58-1.58-.86-1.66-.79-3.31-.07-5.04s1.66-3.24,2.81-4.75c1.58-1.94,3.24-3.89,5.04-5.69,3.24-3.31,6.55-6.48,9.79-9.79,3.24-3.53,5.83-7.49,8.21-11.67,1.22-2.16,2.38-4.46,3.24-6.84,.79-1.94,1.3-3.89,1.22-5.9,0-.43-.14-1.08,.5-1.15,.5-.07,.79,.43,.94,.86,.5,1.15,.36,2.3,.22,3.53-.36,2.81-1.3,5.47-2.52,7.99-3.74,7.85-8.21,15.19-14.19,21.53-3.1,3.24-6.19,6.48-9,10.01-1.3,1.66-2.59,3.31-3.38,5.33-.65,1.51-.5,1.87,1.01,2.59,1.51,.72,3.82,1.15,6.48,1.15h0Zm18.21-58.67c0-1.08,.94-2.45,2.02-2.74,.29-.14,.58-.14,.86-.07,1.01,.29,2.16,1.66,2.23,2.74,0,1.15-.72,2.38-1.73,2.88-.86,.36-1.37,.29-1.94-.43-.29-.36-.58-.65-.86-.94-.36-.43-.58-.86-.58-1.44Z"/>
        <path class="cls-1" d="M139.73,48.66c-.61,.9-1.34,2.31-2.19,3.94-.93,1.79-2,3.83-3.22,5.86-3.33,5.52-7.84,10.94-14.15,10.94-3.05,0-5.68-1.08-7.8-3.22-3.72-3.75-5.73-10.66-5.66-19.48,.07-8.39,1.68-17.38,4.32-24.05,3.15-7.96,7.4-12.17,12.29-12.17,2.57,0,4.63,.89,6.11,2.65,.6,.71,1.1,1.55,1.5,2.53,1.51,3.66,1.65,9.18,.4,16.49-.08,.47-.53,.78-.99,.7s-.78-.52-.7-.99c.95-5.56,1.07-10.06,.38-13.35h0s-.02-.06-.03-.09c-.09-.38-.18-.73-.27-1.05-.05-.18-.11-.36-.17-.52h0c-.05-.16-.11-.3-.16-.44v-.02c-.85-2.07-2.02-2.56-3.47-2.56-2.17,0-5.53,2-8.46,7.61-2.33,4.46-5.09,12.73-5.09,26.76,0,15.16,5.89,17.42,9.4,17.42,4.25,0,7.37-2.27,11.12-8.08,.01,0,.02-.03,.03-.05,1.17-1.96,2.2-3.93,3.11-5.67,.87-1.68,1.63-3.13,2.29-4.11,.26-.39,.8-.5,1.19-.23,.4,.26,.5,.8,.23,1.19h-.01Z"/>
        <path class="cls-1" d="M171.45,48.62l-.5,.86c-1.96,3.34-3.97,6.65-5.98,9.21-.02,.04-.05,.07-.08,.11l-.09,.11s-.04,.05-.07,.08c-2.16,2.69-4.33,4.48-6.42,4.48-1.73,0-3.13-.73-4.17-2.18-1.85-2.57-2.21-7.12-1.95-11.4-1.22,3.05-2.47,5.85-3.74,8.11-.02,.05-.04,.09-.07,.14-.09,.15-.18,.3-.27,.44-1.75,2.98-3.52,4.88-5.24,4.88s-3.13-.73-4.17-2.18c-3.48-4.82-1.7-16.61-.41-20.49,.45-1.34,2.03-1.77,3.25-1.41,1.15,.35,2.1,1.48,1.62,3.23-1.43,5.27-2.14,14.3-.05,17.03,.38,.5,.83,.74,1.39,.76,.15-.06,.8-.46,2.4-3.14,0,0,0,0,.01-.02,.51-.91,1.07-2.01,1.68-3.33,2.08-4.49,3.95-9.8,4.96-12.64l.16-.45v-.04c.47-1.33,2.05-1.76,3.26-1.39,1.15,.35,2.1,1.48,1.63,3.23-1.42,5.26-2.17,14.06,.14,16.93,.53,.66,1.18,.95,2.02,.91,.24-.06,.91-.5,2.72-2.66l.09-.11s0,0,.01,0c2.23-2.83,4.4-6.54,5.88-9.06l.51-.86c.24-.41,.77-.54,1.18-.3s.54,.77,.3,1.17h0Z"/>
        <path class="cls-1" d="M201.89,48.62l-.5,.86c-1.96,3.34-3.97,6.65-5.98,9.21-.02,.04-.05,.07-.07,.11l-.09,.1s-.05,.05-.07,.08c-2.17,2.69-4.33,4.48-6.43,4.48-1.73,0-3.13-.73-4.17-2.17-1.18-1.63-1.75-4.08-1.95-6.74-.41,1.01-.87,2.03-1.39,3.01-1.7,3.19-4.08,5.9-7.44,5.9-2.84,0-6.16-2.25-6.16-8.59,0-8.04,6.69-15.6,11.88-15.6,2.21,0,3.48,.59,4.32,1.32,.11,.08,.21,.16,.31,.26,0-.02,0-.03,.01-.05,.44-1.32,2.14-1.79,3.45-1.39,1.19,.36,2.18,1.49,1.71,3.21-1.39,5.15-2.39,14.11-.08,16.97,.51,.63,1.13,.91,1.96,.87,.24-.07,.91-.5,2.72-2.66l.09-.11s0,0,.01-.02c2.23-2.83,4.4-6.54,5.88-9.06l.51-.86c.24-.41,.77-.55,1.18-.31,.41,.24,.54,.77,.3,1.18h0Zm-18.31-5.68c-.1-.15-.2-.3-.31-.44-.15-.2-.31-.4-.51-.57-.29-.19-.77-.3-1.55-.09-3.35,.9-8.22,6.65-8.22,13.6,0,3.63,1.4,5.32,2.34,5.32,1.46,0,3.3-2.02,4.37-4.01,.01-.03,.03-.05,.05-.08,1.22-2.32,2.11-4.98,2.75-6.88,.05-.15,.1-.3,.15-.44,.17-2.38,.53-4.65,.92-6.41h.01Z"/>
        <path class="cls-1" d="M233.3,48.52c-.09,.2-.21,.49-.37,.86-3,6.99-5.64,12.07-7.98,15.37-.02,.03-.05,.07-.08,.11-.29,.43-.65,.91-1.06,1.37-.03,.04-.06,.07-.09,.11-1.76,2.1-3.36,3.12-4.83,3.12-1.1,0-2.01-.39-2.71-1.17-2.25-2.51-1.57-8.7-.92-14.69,.48-4.41,1.03-9.41-.09-10.65-.14-.16-.3-.23-.54-.23-1.06,0-2.22,1.18-3.32,3.3-.06,.11-.12,.23-.17,.35-1.71,3.57-3.14,8.87-3.82,15.81h0c-.03,.49-.3,.9-.77,1.11-.23,.1-.5,.15-.79,.15-1.33,0-3.15-1.01-3.91-2.59-2.41-5.02-2.5-15.23-.89-20.07,.45-1.34,2.1-1.78,3.38-1.41,1.19,.34,2.21,1.46,1.8,3.21-.99,4.17-1.4,10.1-.04,15.56,.61-4.09,1.49-7.48,2.53-10.21h0s.02-.05,.03-.08c.39-1.04,.88-2.16,1.45-3.18,.02-.03,.03-.07,.05-.1,2.02-3.67,4.38-5.41,6.57-5.41,1.29,0,2.32,.45,3.09,1.33,2.37,2.75,1.43,9.19,.51,15.41-.64,4.33-1.36,9.24-.31,10.45,.09,.11,.23,.21,.52,.21s.96-.32,1.89-1.38h0c.37-.46,.76-.97,1.18-1.58,0-.02,.02-.03,.03-.05,.02-.03,.04-.06,.07-.09,1.94-2.82,4.44-7.4,7.62-14.79,.16-.38,.29-.67,.38-.88,.19-.43,.7-.63,1.13-.44,.44,.19,.63,.7,.44,1.13v.04Z"/>
        <path class="cls-1" d="M263.53,18.39s0,.04-.02,.06h0c-.73,3.25-2.41,7.46-5.01,12.62-2.71,5.36-5.78,10.46-8.08,13.98,.16,18.36,2.62,19.83,3.39,19.83,.11,0,.4-.13,1.01-1.14,0-.02,.02-.04,.03-.06,.12-.21,.24-.43,.37-.67,.03-.05,.06-.11,.09-.17l.12-.22h0c.16-.3,.33-.63,.5-.97,1.86-3.68,3.71-8.32,5.06-11.71,.3-.76,.58-1.46,.84-2.09,.18-.44,.68-.65,1.12-.47s.65,.68,.47,1.12c-.25,.63-.54,1.33-.84,2.08-2.06,5.15-4.01,9.86-5.87,13.28,0,.02-.02,.05-.04,.07-.12,.22-.25,.47-.4,.71-1.71,2.99-3.34,4.82-4.92,4.82-2.47,0-4.18-2.64-5.23-8.07-.37-1.91-.66-4.15-.87-6.71-.51,1.09-1.13,2.26-1.86,3.37-1.88,2.88-4.53,5.39-8.14,5.39-2.84,0-6.16-2.25-6.16-8.59,0-8.04,6.69-15.6,11.88-15.6,1.92,0,3.13,.44,3.97,1.04,.35-7.51,1.81-14.47,4.19-19.89,2.81-6.4,6.58-9.92,10.61-9.92,2.18,0,3.18,1.09,3.64,2.01,.34,.68,.52,1.53,.53,2.57v.09c.04,.92-.09,2-.4,3.24h.02Zm-18.51,32.4c-.09-2.14-.14-4.47-.14-6.95,0-.39,0-.77,0-1.16-.05-.06-.09-.13-.13-.19-.15-.2-.31-.4-.51-.57h0c-.3-.18-.77-.29-1.54-.08-3.35,.9-8.22,6.65-8.22,13.6,0,3.54,1.87,5.32,2.92,5.32s2.53-1.04,3.78-2.57c1.92-2.48,3.19-5.66,3.84-7.39h0Zm16.78-37.04c-.19-.25-.46-.37-.79-.37-2.66,0-10.25,9.8-10.58,28.51,4.5-7.18,9.92-17.32,11.42-23.73,0-.07,0-.13,.03-.2,.1-.39,.17-.75,.23-1.08,.04-.24,.07-.46,.09-.67,.15-1.53-.19-2.2-.39-2.45h0Z"/>
        <path class="cls-1" d="M289.8,48.7c-2.27,3.2-8.37,9.07-13.3,9.47-.65,1.14-1.43,2.1-2.3,2.88-1.76,1.59-3.88,2.4-5.94,2.4-2.44,0-8.11-1.05-8.11-10.77,0-5.49,4.03-13.42,11.33-13.42,2.32,0,4.77,1.59,6.06,4.99,0,.02,.02,.04,.03,.06,.02,.04,.03,.09,.05,.13h0c.54,1.5,.86,3.33,.86,5.52,0,2.42-.4,4.54-1.09,6.33,3.87-.96,8.76-5.4,11.01-8.58,.27-.39,.81-.48,1.2-.2,.39,.27,.48,.81,.21,1.2h0Zm-13.04,1.25c0-2.02-.29-3.68-.78-5-.4-.9-1.29-2.38-2.81-2.38-3.53,0-7.34,3.79-7.34,9.9,0,5.39,1.5,8.61,4.01,8.61,.99,0,1.92-.39,2.65-.89h0c.25-.19,.51-.4,.76-.64,0,0,.03-.02,.03-.03,.02-.02,.04-.04,.06-.06s.04-.04,.07-.06h0c.45-.45,.88-.96,1.27-1.55-.46-.3-.67-.76-.71-1.19-.1-1.04,.75-2.04,1.93-2.26,.1-.02,.21-.02,.3,0,.35-1.28,.55-2.75,.55-4.43v-.02Z"/>
        <path class="cls-1" d="M341.11,48.85c-.18,.15-.48,.37-.87,.67-4.18,3.22-7.92,6.41-11.22,9.56-.71,14.94-2.9,33.57-8.52,39.35-1.26,1.29-2.66,1.95-4.17,1.95-2.53,0-6.77-1.33-6.77-10.26s4.82-18.1,14.09-28.04c.31-6.19,.36-11.87,.3-15.73-3.38,9.04-7.14,17.1-10.73,17.1-1.73,0-3.13-.73-4.17-2.17-3.47-4.82-1.7-16.61-.41-20.49,.45-1.34,2.04-1.77,3.25-1.41,1.15,.35,2.1,1.48,1.63,3.23-1.43,5.27-2.14,14.3-.05,17.03,.39,.5,.83,.74,1.39,.76,.15-.06,.8-.46,2.4-3.14,.04-.06,.08-.12,.13-.17,.5-.9,1.05-1.97,1.64-3.25,2.1-4.51,3.95-9.75,4.94-12.56v-.03l.09-.22s.03-.09,.05-.13c.42-.93,1.24-1.5,2.09-1.61,.72-.1,1.41,.11,1.97,.58,.48,.41,1.06,1.2,1.1,2.63,.09,3.26,.09,8.33-.13,14.14,3.02-2.8,6.38-5.63,10.07-8.47,.38-.29,.66-.51,.84-.65,.37-.3,.91-.24,1.21,.13,.3,.37,.24,.91-.13,1.21h-.02Zm-17.61,15.91c-8.05,9.04-12.22,17.62-12.22,25.35,0,.62,.02,1.26,.08,1.9,.38,2.91,1.75,5.36,3,5.36,.83,0,1.6-.39,2.36-1.2,4.12-4.39,6.01-18.56,6.78-31.41Z"/>
        <path class="cls-1" d="M414.12,48.03c.14,.46-.11,.94-.57,1.07-3.99,1.22-7.87,2.45-11.38,3.75-.53,2.28-1.17,4.42-1.91,6.39-2.47,6.59-5.66,10.23-8.98,10.25h-.07c-1.99,0-3.34-.47-4.24-1.03-.39-.24-.69-.5-.93-.74-.78-.8-1.19-1.83-1.15-2.92,.16-5.02,5-8.66,12.25-11.81,1.1-4.32,1.79-9.3,1.79-14.47,0-12.53-3.65-24.38-7.51-24.38-1.5,0-2.81,.9-3.7,2.55-.03,.05-.06,.1-.1,.14-3.08,6.68-4.21,20.21-5.28,37.18,0,.04,0,.08-.02,.12-.26,5.98-.58,10.3-.65,10.81l-.03,.21c-.29,2.06-.62,4.39-2.68,4.39-.92,0-1.47-.41-1.78-.75-.68-.77-.89-2.05-.65-3.94,.23-1.86,2.63-35,.24-47.26-.5-2.54-1.85-4.18-3.44-4.18-3.81,0-6.88,2.76-8.21,7.38,0,.02-.01,.05-.02,.07-1.59,6.77,.35,15.45,2.95,18.79,.29,.38,.23,.92-.15,1.21-.38,.29-.92,.22-1.21-.15-3.38-4.35-5.7-16.3-1.99-23.89,2.01-4.1,5.52-6.27,10.16-6.27,3.02,0,5.52,2.63,6.37,6.7,.76,3.6,1.16,8.49,1.34,13.78,.83-6.42,1.94-11.53,3.58-15.05,.01-.04,.03-.08,.05-.12,0-.01,.01-.03,.02-.04v-.02c1.64-3.41,3.81-5.25,6.75-5.25,3.7,0,6.73,3.22,8.75,9.3,1.73,5.21,2.34,11.27,2.34,15.22,0,5.53-.52,10.91-1.49,15.76,3.24-1.16,6.76-2.28,10.44-3.4,.45-.14,.93,.12,1.07,.57l.04,.03Zm-27.51,16.84c-.02,.62,.21,1.19,.66,1.66,.16,.16,.34,.31,.54,.44,.67,.33,1.38,.25,2.19-.24,2.32-1.41,4.79-5.73,6.54-11.56-5.88,2.72-9.82,5.81-9.94,9.7h0Z"/>
        <path class="cls-1" d="M440.63,48.7c-2.27,3.2-8.37,9.07-13.3,9.47-.65,1.14-1.43,2.1-2.3,2.88-1.76,1.59-3.88,2.4-5.94,2.4-2.44,0-8.11-1.05-8.11-10.77,0-5.49,4.03-13.42,11.33-13.42,2.32,0,4.77,1.59,6.06,4.99,0,.02,.02,.04,.03,.06,.02,.04,.03,.09,.05,.13h0c.54,1.5,.86,3.33,.86,5.52,0,2.42-.4,4.54-1.09,6.33,3.87-.96,8.76-5.4,11.01-8.58,.27-.39,.81-.48,1.2-.2,.39,.27,.48,.81,.21,1.2h-.01Zm-13.04,1.25c0-2.02-.29-3.68-.78-5-.4-.9-1.29-2.38-2.81-2.38-3.53,0-7.34,3.79-7.34,9.9,0,5.39,1.5,8.61,4.01,8.61,.99,0,1.92-.39,2.65-.89h.01c.25-.19,.51-.4,.76-.64,.01,0,.03-.02,.03-.03,.02-.02,.04-.04,.06-.06s.04-.04,.07-.06h.01c.45-.45,.88-.96,1.27-1.55-.46-.3-.67-.76-.71-1.19-.1-1.04,.75-2.04,1.93-2.26,.1-.02,.21-.02,.3,0,.35-1.28,.55-2.75,.55-4.43v-.02Z"/>
        <path class="cls-1" d="M472.04,48.52c-.09,.2-.21,.49-.37,.86-3,6.99-5.63,12.07-7.98,15.37-.02,.03-.05,.07-.08,.11-.29,.43-.65,.91-1.06,1.37-.03,.04-.06,.07-.09,.11-1.76,2.1-3.36,3.12-4.83,3.12-1.1,0-2.01-.39-2.71-1.17-2.25-2.51-1.57-8.7-.92-14.69,.48-4.41,1.03-9.41-.09-10.65-.14-.16-.3-.23-.54-.23-1.06,0-2.22,1.18-3.32,3.3-.06,.11-.12,.23-.17,.35-1.71,3.57-3.14,8.87-3.82,15.81h0c-.03,.49-.3,.9-.77,1.11-.23,.1-.5,.15-.79,.15-1.33,0-3.15-1.01-3.91-2.59-2.41-5.02-2.5-15.23-.89-20.07,.45-1.34,2.1-1.78,3.38-1.41,1.19,.34,2.21,1.46,1.79,3.21-.99,4.17-1.4,10.1-.04,15.56,.61-4.09,1.49-7.48,2.53-10.21h0s.02-.05,.03-.08c.39-1.04,.88-2.16,1.45-3.18,.02-.03,.03-.07,.05-.1,2.02-3.67,4.38-5.41,6.57-5.41,1.29,0,2.32,.45,3.09,1.33,2.37,2.75,1.43,9.19,.51,15.41-.64,4.33-1.36,9.24-.31,10.45,.09,.11,.23,.21,.52,.21s.96-.32,1.89-1.38h.01c.37-.46,.76-.97,1.18-1.58,.01-.02,.02-.03,.03-.05,.02-.03,.04-.06,.07-.09,1.94-2.82,4.44-7.4,7.62-14.79,.16-.38,.29-.67,.38-.88,.19-.43,.7-.63,1.13-.44,.44,.19,.63,.7,.44,1.13l.02,.04Z"/>
        <path class="cls-1" d="M502.28,18.39s-.01,.04-.02,.06h0c-.73,3.25-2.41,7.46-5.01,12.62-2.71,5.36-5.78,10.46-8.08,13.98,.16,18.36,2.62,19.83,3.39,19.83,.11,0,.4-.13,1-1.14,0-.02,.02-.04,.03-.06,.12-.21,.24-.43,.37-.67,.03-.05,.06-.11,.09-.17l.12-.22h0c.16-.3,.33-.63,.5-.97,1.86-3.68,3.71-8.32,5.07-11.71,.3-.76,.58-1.46,.84-2.09,.18-.44,.68-.65,1.12-.47s.65,.68,.47,1.12c-.25,.63-.54,1.33-.84,2.08-2.06,5.15-4.01,9.86-5.87,13.28-.01,.02-.02,.05-.04,.07-.12,.22-.25,.47-.4,.71-1.71,2.99-3.34,4.82-4.92,4.82-2.46,0-4.18-2.64-5.23-8.07-.37-1.91-.66-4.15-.87-6.71-.51,1.09-1.12,2.26-1.86,3.37-1.88,2.88-4.53,5.39-8.14,5.39-2.84,0-6.16-2.25-6.16-8.59,0-8.04,6.69-15.6,11.88-15.6,1.92,0,3.13,.44,3.97,1.04,.35-7.51,1.81-14.47,4.19-19.89,2.81-6.4,6.58-9.92,10.61-9.92,2.18,0,3.18,1.09,3.64,2.01,.34,.68,.52,1.53,.53,2.57v.09c.04,.92-.09,2-.4,3.24h.02Zm-18.51,32.4c-.09-2.14-.14-4.47-.14-6.95,0-.39,0-.77,.01-1.16-.04-.06-.09-.13-.13-.19-.15-.2-.32-.4-.51-.57h0c-.3-.18-.77-.29-1.54-.08-3.35,.9-8.22,6.65-8.22,13.6,0,3.54,1.87,5.32,2.92,5.32s2.53-1.04,3.78-2.57c1.92-2.48,3.19-5.66,3.84-7.39h0Zm16.78-37.04c-.19-.25-.46-.37-.79-.37-2.66,0-10.25,9.8-10.58,28.51,4.5-7.18,9.92-17.32,11.42-23.73,0-.07,0-.13,.03-.2,.1-.39,.17-.75,.23-1.08,.04-.24,.07-.46,.09-.67,.15-1.53-.19-2.2-.39-2.45h-.01Z"/>
        <path class="cls-1" d="M522.63,48.66c-3.09,4.64-7.93,11.92-13.01,14.13h-.01c-.07,.05-.16,.08-.25,.11h-.01c-.88,.35-1.77,.55-2.65,.55-3.54,0-8.52-3.41-8.52-10.98,0-8.68,4.91-13.21,9.75-13.21,1.15,0,2.2,.3,2.97,.85,.93,.66,1.44,1.67,1.44,2.83v.11c-.09,4.38-5.2,7.98-8.45,9.54-.07,.78-.11,1.6-.11,2.47,0,2.63,.65,4.54,1.88,5.51,1.02,.8,2.32,.88,3.23,.68,4.61-1.96,9.5-9.31,12.31-13.54,.26-.39,.8-.5,1.19-.24,.4,.26,.5,.8,.24,1.19Zm-18.46,1.85c2.92-1.63,6.36-4.5,6.45-7.45h0c0-.15-.03-.87-.65-1.1-.4-.15-1.04,.04-1.69,.5-1.58,1.1-3.35,3.77-4.11,8.05h0Z"/>
        <path class="cls-1" d="M544.86,20.71c0,4.64-2.17,8.49-4.46,12.57-2.89,5.15-6.16,10.98-6.16,19.95,0,.48-.38,.86-.86,.86s-.86-.38-.86-.86c0-13.33,2.41-18.94,4.34-23.44,1.21-2.83,2.17-5.07,2.17-8.55,0-5.28-3.18-7.2-5.32-7.2s-4.76,.53-6.42,2.99h0c-.82,1.46-1.32,3.21-1.32,5.21,0,.48-.39,.86-.86,.86s-.86-.38-.86-.86c0-2.14,.49-4.03,1.33-5.65h0c.02-.08,.05-.15,.09-.22l.12-.19c2.05-3.62,5.83-5.7,9.42-5.7,4.66,0,9.64,2.69,9.64,10.23h0Zm-8.99,39.4c0,1.37-1.11,2.48-2.48,2.48s-2.48-1.11-2.48-2.48,1.11-2.48,2.48-2.48,2.48,1.11,2.48,2.48Z"/>
      </g>
      <path class="cls-1" d="M417.79,33.68c1.35,.73,2.71,1.15,4.2,1.25,.95,0,1.76-.31,2.44-.84,2.84-2.19,5.69-4.49,8.13-6.89l2.17-1.89c.27-.31,0-.73-.54-.93-.68-.42-1.35-.73-2.17-.94-.68-.1-.95,.52-1.35,.84-2.84,2.3-5.69,4.6-9.08,6.58-.95,.52-1.9,.94-2.98,.94-.68,0-1.22,.1-1.35,.63-.27,.52,0,.94,.54,1.25h-.01Z"/>
      <path class="cls-1" d="M176.48,33.68c1.35,.73,2.71,1.15,4.2,1.25,.95,0,1.76-.31,2.44-.84,2.84-2.19,5.69-4.49,8.13-6.89l2.17-1.89c.27-.31,0-.73-.54-.93-.68-.42-1.35-.73-2.17-.94-.68-.1-.95,.52-1.35,.84-2.84,2.3-5.69,4.6-9.08,6.58-.95,.52-1.9,.94-2.98,.94-.68,0-1.22,.1-1.35,.63-.27,.52,0,.94,.54,1.25h0Z"/>
    </g>
  </g>
</svg>