<?xml version="1.0" encoding="utf-8"?>
<!-- Generator: Adobe Illustrator 27.2.0, SVG Export Plug-In . SVG Version: 6.00 Build 0)  -->
<svg version="1.1" id="Layer_1" xmlns="http://www.w3.org/2000/svg" xmlns:xlink="http://www.w3.org/1999/xlink" x="0px" y="0px"
	 viewBox="0 0 300 300" style="enable-background:new 0 0 300 300;" xml:space="preserve">
<g id="SbN83v_00000168812013943733727930000004895012616906430084_">
	<g>
		<path d="M159.86,166.92c-3.95-1-3.86-0.82-3.58-4.96c0.36-5.28,0.66-10.53-0.03-15.8c-0.02-0.17,0.05-0.34,0.26-0.57
			c1.68,3.06,2.44,6.43,2.99,9.82c0.57,3.47,0.87,6.98,1.3,10.59c4.36-0.02,8.03-1.79,11.21-4.68c4.19-3.81,6.41-8.75,7.89-14.08
			c1.53-5.48,1.97-11.1,2.12-16.75c0.01-0.41,0.02-0.83,0.05-1.24c0.01-0.12,0.09-0.24,0.29-0.72c0.28,0.7,0.5,1.14,0.62,1.6
			c1.8,7.01,3.72,13.99,6.58,20.66c1.48,3.46,3.12,6.85,5.79,9.61c3.11,3.21,6.28,3.22,9.19-0.2c3.67-4.32,5.56-9.47,6.16-15.04
			c0.16-1.48-0.54-3.04-0.73-4.58c-0.61-5.13,0.38-9.94,3.08-14.49c-1.01-0.12-1.54,0.25-1.91,1.11c-1.24,2.9-3.09,5.3-6.01,6.71
			c-1.51,0.73-1.72,0.63-2.37-0.86c-0.67-1.55-1.41-3.09-1.95-4.68c-0.55-1.63,0.01-2.29,1.75-2.36c2.43-0.1,4.86-0.22,7.29-0.25
			c0.98-0.01,1.4-0.44,1.54-1.34c0.33-2.08,0.87-4.14,1-6.23c0.25-3.89,0.2-7.8,0.39-11.69c0.48-9.98,0.81-19.99,2.97-29.8
			c0.38-1.74,0.85-3.49,1.57-5.11c0.76-1.72,1.86-3.29,2.91-5.09c-6-2.71-12.33-5.58-18.67-8.44c-0.02,0.02-0.04,0.05-0.06,0.07
			c0.47,0.33,0.93,0.68,1.4,1c3.07,2.09,3.99,5.13,3.77,8.63c-0.02,0.39-0.55,0.94-0.97,1.09c-1.02,0.38-2.1,0.57-3.43,0.9
			c0.49,0.54,0.78,1,1.19,1.28c1.9,1.31,2.17,2.97,1.29,5.02c-1.61,3.79-3.01,7.68-4.73,11.42c-3.37,7.34-7.12,14.48-12.01,20.96
			c-0.83,1.1-1.82,2.08-2.73,3.12c-0.15-0.1-0.29-0.2-0.44-0.29c0.22-0.61,0.41-1.23,0.67-1.82c4.53-10.28,8.78-20.67,11.53-31.57
			c1.44-5.72,2.35-11.57,3.5-17.37c0.24-1.21,0.23-2.33-0.92-3.18c-0.38-0.28-0.58-0.81-0.84-1.19c-1.31,1.22-2.63,2.45-3.98,3.7
			c0.63-0.24,1.29-0.49,2.34-0.89c-0.29,2.59-0.54,4.86-0.84,7.56c-1.14-0.8-1.97-1.4-2.81-1.97c-2.68-1.83-2.24-2.32-5.24,0.02
			c-1.07,0.84-1.96,1.9-2.94,2.86c-1.79-1.54-2.4-5.92-1.14-8.33c0.96,0.3,1.93,0.6,3.2,1c-1.79-1.46-3.3-2.69-5.1-4.15
			c-0.87,1.55-1.91,3.04-2.6,4.68c-2.29,5.42-2.83,11.17-2.9,16.97c-0.14,11.08,1.24,21.96,4.38,32.6c0.11,0.36,0.09,0.75,0.14,1.12
			c-0.11,0.05-0.22,0.1-0.34,0.15c-0.34-0.44-0.72-0.86-1.01-1.33c-2.83-4.66-4.66-9.74-6.25-14.92c-2.01-6.52-3.75-13.11-4.62-19.9
			c-0.17-1.3,0.25-2.11,1.35-2.7c0.88-0.47,1.72-1,2.63-1.53c-0.23-0.25-0.35-0.39-0.48-0.52c-2.55-2.46-2.55-2.94-0.05-5.54
			c0.95-0.99,1.85-2.02,2.7-3.18c-4.87,2.35-10.23,2.24-15.41,3.27c2.61,9.25,2.09,18.6,2.51,27.88c0.21,4.66,0.85,9.3,1.29,13.95
			c0.04,0.39,0.05,0.78,0.11,1.61c-2.83-2.42-5.48-4.45-9.23-4.45c1.56,0.81,3.1,1.35,4.33,2.3c1.83,1.41,3.52,3.04,5.11,4.73
			c0.68,0.72,1.27,0.98,2.13,0.7c0.7-0.22,1.43-0.42,2.04-0.8c2.51-1.52,5.18-1.27,7.88-0.82c0.36,0.06,0.78,0.12,1.03,0.34
			c1.89,1.64,4.35,1.49,6.54,2.18c1.22,0.38,2.45,0.77,3.62,1.27c0.84,0.36,1.61,0.87,1.58,2.03c-0.01,0.3,0.44,0.63,0.7,0.91
			c0.74,0.78,0.76,1.48-0.06,2.25c-0.32,0.3-0.48,0.77-0.7,1.17c-0.08,0.16-0.06,0.44-0.18,0.5c-1.81,0.96-2.45,3.56-5.02,3.49
			c-4.71-0.12-9.47,0.3-13.99-1.45c-1.19-0.46-2.29-1.13-3.53-1.75c-0.25,1.03-0.36,2.07-0.77,3c-0.3,0.69-1.02,1.75-1.46,1.71
			c-0.75-0.08-1.8-0.76-2.04-1.43c-0.66-1.87-1.01-3.85-1.41-5.8c-0.12-0.61-0.02-1.27-0.16-1.9c-1.12,3.46-1.01,6.88,0.76,10.51
			c-0.7-0.25-1.02-0.3-1.26-0.45c-5.79-3.69-9.94-8.66-11.56-15.44c-0.64-2.68-0.61-5.38,2.35-6.94c-0.48-0.43-1.15-0.75-1.31-1.23
			c-0.16-0.49,0.17-1.14,0.28-1.72c1.52-7.64,2.97-15.29,4.58-22.91c0.89-4.21,2.05-8.35,3.05-12.54c0.42-1.74,1.53-2.53,3.23-2.88
			c4.08-0.84,8.2-1.61,12.18-2.8c2.37-0.71,4.67-1.93,6.71-3.35c2.45-1.7,3.78-4.34,2.9-7.31c-0.54-1.83-1.81-3.53-3.06-5.04
			c-1.15-1.39-2.07-2.78-2.36-4.55c-0.06-0.35-0.11-0.88,0.09-1.07c1.55-1.47,0.3-2.91-0.01-4.32c-0.74-3.3-1.13-6.61-0.4-9.95
			c0.78-3.57,2.82-5.18,6.46-5.39c0.56-0.03,1.12-0.32,1.66-0.53c2.08-0.81,4.09-1.95,6.24-2.42c6.61-1.45,11.92,2.42,13.19,9.35
			c0.57,3.09,0.32,6.12-0.59,9.11c-0.18,0.6-0.31,1,0.3,1.54c0.38,0.33,0.53,1.2,0.44,1.76c-0.35,2.12-1.13,4.05-2.89,5.46
			c-0.31,0.25-0.5,0.72-0.63,1.13c-0.59,1.87-1.21,3.73-1.66,5.64c-0.15,0.64-0.09,1.58,0.28,2.04c1.05,1.29,2.19,2.6,3.54,3.55
			c4.39,3.1,9.49,4.71,14.45,6.63c2.13,0.83,4.26,1.69,6.27,2.77c0.74,0.39,1.48,1.38,1.61,2.2c1.53,9.8,4.13,19.35,6.85,28.87
			c1.32,4.62,2.15,9.3,1.78,14.12c-0.4,5.26-1.78,10.31-3.78,15.15c-3.2,7.74-6.62,15.39-9.98,23.07c-0.73,1.66-1.84,1.98-3.29,0.91
			c-1.09-0.8-2.03-1.8-3.24-2.89c-0.78,3.8-1.6,7.44-2.26,11.11c-2.32,12.88-2.71,25.9-2.7,38.95c0,5.55,0.05,11.1-0.02,16.65
			c-0.1,7.69-1.4,15.24-2.64,22.8c-1.48,9.04-2.85,18.11-4.19,27.17c-0.29,1.95-0.36,3.93-0.42,5.9c-0.03,1.16-0.53,1.51-1.6,1.49
			c-4.21-0.06-8.3-0.67-12.09-2.69c-1.15,1.39-0.15,2.37,0.57,3.29c0.71,0.92,1.59,1.72,2.61,2.8c-1.56,0-2.89,0-4.56,0
			c0.36,0.76,0.46,1.37,0.82,1.65c1.5,1.17,2.19,2.8,2.71,4.53c2.04,6.7,7.61,7.16,12.86,6.04c1.87-0.4,2.13-2.24,0.61-3.73
			c-2.05-2-3.51-4.34-4.3-7.09c-0.16-0.56-0.24-1.15-0.39-1.88c31.41,0,62.67,0,93.93,0c0,0.17,0.01,0.34,0.01,0.52
			c-5.1,0.06-10.2,0.02-15.3,0.02c-5.19,0.01-10.37,0-15.56,0c-5.19,0-10.38-0.01-15.57,0c-5.14,0.02-10.28,0.07-15.42,0.09
			c-5.19,0.02-10.38,0.01-15.57,0.01c-5.18,0-10.37,0-15.64,0c0.56,3.09,2.01,5.53,4.11,7.59c0.99,0.97,1.69,2.02,1.28,3.4
			c-0.42,1.43-1.72,1.93-3.02,2c-2,0.11-4.04,0.18-6.01-0.12c-2.93-0.45-4.91-2.28-6.06-5.04c-0.73-1.72-1.5-3.44-2.4-5.08
			c-0.53-0.95-1.35-1.74-2.21-2.83c-2.15,0-4.67-0.01-7.19,0.02c-0.33,0-0.77,0.13-0.97,0.36c-3.12,3.61-7.16,3.88-11.44,3.14
			c-0.76-0.13-1.7-0.43-2.13-0.98c-0.44-0.56-0.34-1.54-0.51-2.55c-0.56,0-1.22,0-1.88,0c-5.28,0-10.56-0.03-15.84,0.03
			c-1.03,0.01-1.45-0.46-1.89-1.22c-5.12-8.89-8.54-18.41-10.73-28.43c-2.26-10.32-3.09-20.76-3.01-31.3
			c0.08-10.46,1.67-20.72,3.82-30.93c2.18-10.34,3.45-20.82,3.22-31.43c-0.16-7.2-1.56-14.19-3.41-21.12
			c-1.22-4.57-2.14-9.19-2.12-13.96c0.01-4.66,1.2-8.95,3.52-12.98c0.44-0.77,0.67-1.79,0.62-2.68c-0.17-3.16-0.55-6.31-0.74-9.47
			c-0.08-1.32,0.1-2.66,0.25-3.98c0.06-0.53,0.36-1.04,0.54-1.56c0.12,0.02,0.25,0.04,0.37,0.05c0.09,0.92,0.09,1.85,0.29,2.75
			c0.38,1.79,0.96,3.54,1.3,5.34c0.48,2.57,0.34,5.1-0.69,7.56c-0.23,0.55-0.28,1.24-0.23,1.85c0.41,4.66,0.77,9.3,0.07,13.99
			c-0.78,5.22,0.75,10.16,2.21,15.11c1.5,5.09,2.83,10.23,4.17,15.37c0.26,1.01,0.22,2.09,0.31,3.14c0.19,2.13,0.42,4.25,0.53,6.38
			c0.04,0.71-0.24,1.45-0.4,2.17c-0.04,0.16-0.26,0.42-0.23,0.45c0.93,0.91,1.81,1.9,2.85,2.67c0.78,0.58,1.39-0.12,1.8-0.74
			c0.78-1.16,1.67-2.31,2.17-3.59c0.26-0.66-0.23-1.61-0.39-2.42c-0.01-0.04-0.05-0.08-0.09-0.11c-3.38-3.1-3.79-7.15-3.61-11.38
			c0.23-5.23,0.55-10.45,0.72-15.68c0.14-4.48-0.48-8.83-2.02-13.1c-0.76-2.11-0.93-4.48-1.1-6.75c-0.41-5.44-0.7-10.89-0.94-16.35
			c-0.09-2.15,0.15-4.31,0.15-6.46c0-2.06,0-4.13-0.21-6.18c-0.29-2.8-2.32-4.01-4.77-4.64c-1.23-0.32-2.52-0.43-3.79-0.63
			c-0.24,1.73-0.42,3.4-0.71,5.04c-0.61,3.48-2.64,6.09-5.3,8.26c-1.28,1.04-2.65,1.96-4.01,2.91c-2.1,1.46-4.33,2.8-5.06,5.92
			c-1.92-3.87-5.64-4.24-8.77-5.55c-3.53-1.48-6.82-3.19-8.87-6.62c-1.38-2.31-1.91-4.85-1.97-7.49c-0.01-0.35,0.31-0.92,0.61-1.03
			c3.02-1.16,6.06-2.25,9.2-3.4c2.78,3.29,7.87,4.54,12.3,2.82c1.41-0.55,2.63-1.34,3.03-2.94c0.2-0.81,0.6-0.63,1.22-0.45
			c2.15,0.61,4.34,1.11,6.51,1.64c0.18,0.04,0.4-0.06,0.67-0.41c-0.42-0.11-0.84-0.27-1.27-0.32c-2.25-0.31-4.43-0.79-6.3-2.17
			c-0.47-0.34-0.91-0.79-1.23-1.27c-0.91-1.34-0.84-2.11,0.25-3.28c4.36-4.68,6.85-10.19,6.95-16.61c0.07-4.34-0.98-8.43-3.55-12.06
			c-4.14-5.83-10.31-6.94-16.19-2.9c-0.62,0.43-1.48,0.67-2.23,0.69c-1.67,0.06-2.88,0.88-3.86,2.09
			c-2.67,3.26-3.47,7.12-3.38,11.21c0.17,7.03,3.4,12.19,9.66,15.62c0.29-1.73-0.42-3.16-0.94-4.64c-0.86-2.5-1.8-5-2.38-7.58
			c-0.6-2.64,0.37-4.92,2.27-6.88c0.93-0.96,1.77-2.11,2.32-3.32c0.34-0.74,0.06-1.77,0.06-2.67c0.06-0.02,0.16-0.11,0.22-0.09
			c2.67,0.91,5.32,1.9,8.01,2.73c4.04,1.25,6.07,3.48,6.02,8.09c-0.04,3.91-0.44,7.92-1.43,11.69c-1.61,6.2-6.84,8.09-12.45,4.97
			c-0.28-0.15-0.55-0.32-0.9-0.51c-2.52,6.33-8.25,7.83-13.96,9.33c-0.61,0.16-1.24,0.28-1.87,0.42c0.61,2.83,1.13,5.61,1.84,8.34
			c0.83,3.21,1.06,6.45,0.48,9.69c-0.8,4.51-0.07,8.69,1.86,12.83c2.83,6.07,3.07,12.38,1,18.76c-1.84,5.66-3.89,11.26-5.57,16.96
			c-2.5,8.53-2.86,17.29-1.7,26.05c1.02,7.67,2.67,15.26,3.67,22.93c1.03,7.95,1.7,15.95,2.38,23.95
			c0.68,8.12,0.39,16.24-0.26,24.35c-0.81,10.07-2.53,20-5.25,29.74c-0.41,1.46-0.88,2.9-1.24,4.36c-0.19,0.78-0.59,1.07-1.36,1.01
			c-0.41-0.04-0.83-0.01-1.24-0.01c-17.54,0-35.08,0-52.62,0c-9.5,0-19.01-0.01-28.51-0.01c-0.57,0-1.14,0-1.71,0
			c-0.02-0.16-0.03-0.32-0.05-0.49c0.47-0.06,0.95-0.18,1.42-0.18c9.51,0.01,19.01,0.06,28.52,0.06c10.1,0,20.2-0.05,30.3-0.06
			c7.72-0.01,15.43-0.02,23.15,0.02c0.97,0.01,1.34-0.3,1.6-1.2c2.47-8.27,4.27-16.69,5.42-25.25c1.6-11.92,1.94-23.91,1-35.86
			c-0.73-9.27-2.06-18.5-3.44-27.69c-1.25-8.34-3.13-16.57-3.07-25.08c0.07-9.4,2.31-18.31,5.55-27.06
			c1.35-3.63,2.47-7.39,3.27-11.18c1.03-4.85,0.23-9.68-1.96-14.07c-2.19-4.38-2.5-8.82-1.84-13.51c0.25-1.8,0.22-3.64,0.08-5.48
			c-0.28,2.68-0.47,5.37-0.87,8.03c-0.59,3.89-1.56,7.74-1.98,11.64c-0.5,4.69-0.69,9.41-0.82,14.13c-0.2,7.12-1.7,13.99-3.53,20.82
			c-0.95,3.54-1.81,7.1-2.7,10.66c-0.12,0.49-0.16,0.99-0.24,1.49c0.13-0.04,0.26-0.09,0.39-0.13c0.35,0.73,1,1.48,0.97,2.19
			c-0.03,0.66-0.79,1.28-1.24,1.92c-0.16-0.05-0.33-0.11-0.49-0.16c0.18,0.5,0.28,1.04,0.54,1.48c0.79,1.37,0.95,2.75,0.32,4.21
			c-0.7,1.62-0.62,3.19,0.15,4.78c0.2,0.42,0.14,1.04,0.01,1.52c-0.2,0.69-0.47,1.41-0.9,1.98c-0.53,0.71-1.15,1.44-1.89,1.88
			c-1.08,0.63-1.92,0.21-2.57-0.88c-0.61-1.02-1.29-2-1.96-2.99c-0.61-0.91-0.58-1.76-0.22-2.83c0.89-2.63,1.56-5.34,2.25-8.03
			c0.09-0.37-0.09-1.03-0.38-1.25c-1.37-1.01-1.41-2.97,0.14-3.77c0.8-0.41,0.88-0.89,0.89-1.61c0.03-6.79,0.14-13.59,0.07-20.38
			c-0.05-5.03,0.73-9.91,1.76-14.83c0.92-4.42,1-9.02,1.75-13.49c0.86-5.19,1.15-10.38,1.05-15.62c-0.06-2.95,0.25-5.93,1.72-8.54
			c0.71-1.26,1.9-2.28,3-3.28c0.75-0.68,1.49-0.49,1.94,0.52c0.25,0.56,0.59,1.09,1.11,1.54c-0.29-1.13-0.58-2.25-0.88-3.39
			c2.34-0.64,4.6-1.18,6.82-1.88c2.51-0.79,4.87-1.91,6.79-3.78c0.39-0.38,0.75-0.8,1.07-1.25c1.85-2.6,1.77-2.96-0.91-4.65
			c-6.34-4-8.85-11.07-8.11-17.94c0.31-2.86,1.09-5.58,2.74-7.98c1.36-1.98,3.07-3.33,5.68-3.28c0.67,0.01,1.37-0.61,2.02-1.01
			c3.99-2.45,8.1-2.9,12.21-0.45c3.37,2.01,5.49,5.11,6.65,8.81c2.89,9.24,0.67,17.34-5.62,24.49c-1.24,1.41-1.19,2.29,0.31,3.53
			c1.84,1.53,4.11,1.93,6.38,2.28c0.79,0.12,1.84-0.11,1.85,1.28c0,0.16,0.75,0.38,1.18,0.47c1.21,0.27,2.45,0.4,3.63,0.73
			c3.34,0.94,4.66,2.57,4.98,6.06c0.09,0.96,0.21,1.94,0.1,2.89c-0.91,8.05,0.73,16.03,0.69,24.05c-0.02,3.38,0.65,6.6,1.77,9.81
			c1.81,5.18,1.42,10.58,1.2,15.95c-0.21,5.04-0.28,10.09-0.39,15.13c-0.05,2.15,0.99,3.82,2.36,5.4c2.6,3.01,1.84,7.16-1.64,9.19
			c-0.35,0.21-1.02,0.33-1.29,0.14c-1.27-0.92-2.48-1.93-3.63-2.99c-0.19-0.17-0.17-0.94,0.02-1.1c0.87-0.71,0.55-1.54,0.45-2.39
			c-0.19-1.62-0.47-3.25-0.44-4.87c0.07-4.01-1-7.81-2.06-11.6c-1.29-4.68-2.79-9.3-4.07-13.97c-1.04-3.78-0.72-7.61-0.4-11.48
			c0.31-3.71,0.03-7.47-0.21-11.22c-2.76,3.85-3.81,8.1-3.85,12.69c-0.05,6.33,1.76,12.32,3.26,18.36
			c2.29,9.23,2.67,18.57,1.93,28.02c-0.8,10.17-2.91,20.11-4.8,30.11c-1.86,9.87-2.19,19.87-1.75,29.9
			c0.34,7.62,1.26,15.18,2.91,22.62c2.16,9.76,5.56,19.06,10.56,27.75c0.39,0.68,0.86,0.91,1.64,0.91
			c5.56-0.03,11.11,0.01,16.67-0.04c0.53,0,1.24-0.35,1.54-0.77c1.71-2.43,3.43-4.87,4.93-7.42c0.99-1.68,1.24-3.62,0.94-5.68
			c-2.3-0.23-2.91-2.01-3.23-3.84c-0.78-4.51-1.32-9.07-2.15-13.58c-1.55-8.38-3.22-16.73-4.87-25.09
			c-1.17-5.95-1.17-11.95-0.85-17.96c0.54-10.39,1.08-20.79,1.62-31.18C159.94,167.7,159.88,167.29,159.86,166.92z M176.71,59.35
			c-2.12,0.8-4.19,1.79-6.38,2.37c-3.4,0.9-6.88,1.53-10.33,2.23c-1.16,0.24-1.86,0.86-2.14,2.02c-1.09,4.48-2.32,8.94-3.28,13.45
			c-1.55,7.3-2.91,14.63-4.39,21.95c-0.38,1.87-0.08,2.31,1.88,2.29c0.27,0,0.54-0.12,0.81-0.12c1.32,0.02,2.73-0.22,3.93,0.17
			c2.06,0.66,3.98,1.72,5.68,2.49c-0.25-3.15-0.62-6.65-0.77-10.16c-0.25-5.77-0.31-11.56-0.55-17.33
			c-0.18-4.21-0.58-8.41-1.85-12.46c-0.45-1.45-0.33-1.72,1.25-1.99c1.99-0.33,4-0.54,5.99-0.83c3.28-0.48,6.5-1.18,9.33-3.03
			c0.35-0.23,0.55-0.7,0.82-1.04c1.03,0.42,0.77,1.02,0.23,1.65c-1.61,1.88-3.19,3.79-4.85,5.62c-0.86,0.95-0.82,1.69,0.06,2.59
			c2.07,2.13,2.05,2.15-0.58,3.61c-0.12,0.07-0.23,0.16-0.35,0.21c-1.33,0.53-1.69,1.49-1.4,2.86c0.57,2.68,0.95,5.41,1.59,8.07
			c1.86,7.85,4.03,15.61,7.58,22.9c0.14,0.28,0.31,0.54,0.47,0.81c-1.69-7.43-2.82-14.89-3.24-22.45
			c-0.39-7.07-0.39-14.14,1.52-21.03c0.7-2.51,1.8-4.91,2.56-6.94C179.36,57.8,178.04,58.58,176.71,59.35z M213.13,145.17
			c0.58,0.65,0.89,1.02,1.22,1.36c0.76,0.79,1.46,1.66,2.31,2.34c1.36,1.1,1.96,0.92,2.69-0.68c2.67-5.93,5.51-11.8,7.91-17.84
			c1.94-4.88,3.56-9.91,4.92-14.99c1.72-6.44,0.72-12.83-1.11-19.13c-2.53-8.71-5.03-17.45-6.3-26.45
			c-0.41-2.89-1.81-4.23-4.26-5.16c-4.62-1.76-9.27-3.46-13.76-5.52c-3.5-1.6-7.12-3.29-8.77-7.31c-2.14,2.28-4.54,3.71-7.71,3.37
			c-3.07-0.33-5.1-2.34-7.01-4.43c-0.44,1.62-0.83,3.09-1.17,4.33c0.38,0.17,0.83,0.27,1.13,0.52c0.7,0.59,1.31,1.28,2.01,1.88
			c3.89,3.36,7.3,3.43,11,0.16c0.74-0.66,1.28-1.54,1.9-2.33c0.21-0.27,0.39-0.56,0.64-0.91c0.64,1.09,1.2,2.05,1.76,3
			c0.1-0.15,0.2-0.31,0.3-0.46c0.43,0.06,0.92,0.02,1.29,0.21c1.67,0.85,3.27,1.86,4.97,2.64c3.75,1.72,7.55,3.31,11.31,5
			c1.25,0.56,2.45,1.26,4.01,2.07c-2.75,0.99-3.65,2.99-4.48,5.05c-0.19,0.47-0.37,0.94-0.51,1.42c-2.51,8.33-2.9,16.96-3.58,25.55
			c-0.69,8.79,0.13,17.68-1.79,26.5c0.79-0.18,1.54-0.34,2.64-0.59c-0.4,0.7-0.57,1.06-0.79,1.39c-2.89,4.52-4.06,9.47-3.09,14.72
			c0.59,3.19,0.72,6.23-0.31,9.32c-1.35,4.03-2.91,7.93-5.93,11.04c-2.72,2.81-6,2.97-8.92,0.38c-1.02-0.9-1.95-1.96-2.72-3.08
			c-3.59-5.19-5.59-11.11-7.48-17.05c-0.92-2.9-1.72-5.85-2.48-8.48c-0.62,4.09-1.13,8.45-1.96,12.74c-0.86,4.44-2.58,8.6-5.2,12.33
			c-3.66,5.2-8.54,8.34-15.17,8.72c0,2.34,0.11,4.63-0.02,6.91c-0.52,9.44-1.18,18.87-1.66,28.31c-0.27,5.28-0.13,10.56,1.08,15.75
			c2.51,10.76,4.48,21.62,5.91,32.58c0.28,2.17,0.72,4.34,1.3,6.46c0.21,0.77,0.96,1.8,1.63,1.96c1.25,0.28,1.42,0.95,1.39,1.93
			c-0.02,0.64-0.04,1.29-0.15,1.92c-0.55,3.22-2.28,5.86-4.22,8.38c-0.62,0.81-1.23,1.62-2.01,2.64c3.82,0,7.26-0.08,10.7,0.04
			c1.38,0.05,1.92-0.34,2.37-1.69c0.55-1.65,1.31-3.44,2.52-4.6c1.21-1.15,1.79-2.13,1.58-3.73c-0.14-1.04,0.11-2.12,1.21-2.55
			c1.24-0.48,1.3-1.35,1.18-2.44c-0.55-4.83-1.08-9.66-1.58-14.5c-0.72-6.93-1.4-13.87-2.12-20.81c-0.37-3.56-1.2-7.13-1.07-10.66
			c0.23-5.85,0.96-11.7,1.69-17.52c0.96-7.69,2.12-15.35,3.2-23.02c0.11-0.81,0.25-1.61,0.37-2.42c0.13,0,0.25,0,0.38,0
			c0.1,0.37,0.24,0.74,0.31,1.12c0.25,1.4,0.48,2.8,0.7,4.2c1.08,6.71,2.17,13.41,1.76,20.24c-0.21,3.48-0.49,6.97-0.4,10.45
			c0.2,8.25,0.73,16.5,0.9,24.75c0.24,11.79,0.5,23.6-1.62,35.29c-0.13,0.73,0.1,1.52,0.17,2.28c0.76-0.89,1.33-0.81,2.12-0.4
			c3.76,1.96,7.8,2.49,12,2.37c0.05-0.3,0.09-0.48,0.1-0.65c0.67-10.55,2.38-20.95,4.32-31.32c1.48-7.89,2.82-15.82,3-23.87
			c0.17-7.57,0.07-15.15,0.07-22.72c0.01-13.48,1-26.86,3.89-40.06C212.05,149.49,212.56,147.52,213.13,145.17z M82.97,157.18
			c0.19,0.02,0.38,0.03,0.58,0.05c-0.6-2.33,0.92-2.45,2.32-2.58c0.84-0.08,1.1-0.42,1.28-1.24c0.76-3.39,1.56-6.78,2.49-10.13
			c2.26-8.15,4.05-16.36,4-24.88c-0.04-6.39,0.62-12.71,1.99-18.96c1.13-5.18,1.63-10.42,1.34-15.71c-0.15-2.71-1.75-4.81-2.85-7.14
			c-2.34,0.98-3.56,2.76-3.97,4.85c-0.59,2.99-0.84,6.06-1.09,9.11c-0.15,1.82,0.17,3.68-0.03,5.49c-0.49,4.37-1.21,8.71-1.74,13.07
			c-0.57,4.68-0.87,9.38-2.14,13.96c-0.42,1.52-0.5,3.17-0.51,4.77c-0.03,6.51,0.03,13.03,0.06,19.55c0.01,2.28,0,4.57,0,6.85
			c-0.22-0.08-0.45-0.15-0.67-0.23c-0.54,0.68-1.15,1.33-1.58,2.08C82.32,156.28,82.78,156.8,82.97,157.18z M199.12,27.49
			c-5.48,0.18-10.4-0.46-14.79-3.4c-0.32-0.21-0.92-0.34-1.22-0.18c-2.14,1.12-4.28,2.93-3.8,6.2c0.31,2.13,0.7,4.24,1,6.36
			c0.33,2.3,0.52,4.62,0.93,6.9c0.22,1.25,0.88,2.42,1.13,3.66c0.61,3.07,2.69,4.96,5.15,6.45c3.35,2.04,7.57,1.01,9.85-2.24
			c0.27-0.38,0.35-0.91,0.43-1.38c0.3-1.8,0.56-3.61,0.87-5.41c0.05-0.29,0.24-0.75,0.43-0.78c1.01-0.18,0.84-0.92,0.83-1.58
			c-0.06-3.44-0.07-6.88-0.21-10.31C199.67,30.33,199.33,28.9,199.12,27.49z M177.2,273.6c2.89,0,5.54,0,8.41,0
			c0-1.72,0.03-3.38-0.01-5.03c-0.03-1.21-0.25-2.42-0.19-3.62c0.07-1.28,0.41-2.53,0.56-3.81c1.42-12.12,1.18-24.28,0.72-36.44
			c-0.27-7.25-0.56-14.49-0.65-21.74c-0.05-3.85,0.58-7.71,0.41-11.55c-0.2-4.57-0.92-9.11-1.45-13.66
			c-0.15-1.3-0.42-2.59-0.64-3.88c-1.72,10.53-3.26,21-4.54,31.51c-0.42,3.48-0.36,7.05-0.15,10.56c0.24,4.16,0.92,8.29,1.34,12.44
			c0.64,6.21,1.2,12.42,1.83,18.62c0.4,3.97,0.91,7.93,1.24,11.91c0.07,0.8-0.22,2.11-0.75,2.39c-1.45,0.75-1.64,1.79-1.49,3.17
			c0.12,1.09,0.02,2.12-1.06,2.78C178.43,268.67,177.9,271.11,177.2,273.6z M159.31,125.74c-0.98-6.47,0.04-12.35,2.39-13.34
			c-0.22,1.22-0.52,2.37-0.62,3.52c-0.27,2.91-0.16,5.79,1.37,8.4c0.23,0.4,0.74,0.87,1.12,0.86c0.3,0,0.76-0.62,0.88-1.04
			c0.38-1.29,0.62-2.62,0.96-4.11c0.5,0.24,0.97,0.41,1.37,0.67c5.33,3.4,11.29,3.03,17.19,2.8c1.74-0.07,1.83-0.43,1.36-1.94
			c2.68-0.72,2.68-0.72,2.38-2.25c0.56-0.44,1.08-0.84,1.59-1.25c-0.52-0.5-1.03-1-1.62-1.57c0.74-0.97,0.06-1.54-0.9-1.9
			c-1.24-0.47-2.49-0.93-3.76-1.28c-2.13-0.59-4.46-0.54-6.28-2.09c-0.26-0.22-0.66-0.33-1.02-0.38c-2.52-0.36-5.01-0.59-7.35,0.83
			c-0.72,0.44-1.62,0.59-2.44,0.88c-1,0.35-1.69,0.07-2.35-0.81c-2.58-3.43-5.87-5.86-10.07-7.02c-1.25-0.34-2.2-0.06-3.2,0.63
			c-1.73,1.19-1.92,2.91-1.69,4.76c0.34,2.79,1.46,5.29,2.97,7.62C153.61,120.89,156.08,123.61,159.31,125.74z M117.71,93.74
			c1.17-0.88,2.3-1.74,3.44-2.58c2.07-1.52,4.22-2.95,6.21-4.56c3.61-2.93,5.34-6.78,5.19-11.46c-0.02-0.65-0.06-1.11-0.88-1.24
			c-2.29-0.39-4.56-0.87-6.91-1.33c-3.48,5.03-12.51,5.3-16.43,0.53c-2.68,1-5.29,1.94-7.87,2.96c-0.38,0.15-0.9,0.68-0.88,1.02
			c0.12,2.5,0.72,4.89,2.1,7.03c1.86,2.87,4.68,4.42,7.73,5.71C112.44,91.11,115.85,91.68,117.71,93.74z M113.39,40.13
			c0.2,2.14-1.02,3.66-2.5,5.03c-1.65,1.52-2.72,3.4-2.3,5.61c0.5,2.63,1.46,5.16,2.18,7.75c0.49,1.79,0.89,3.61,1.35,5.41
			c0.09,0.37,0.15,0.89,0.41,1.07c2,1.4,4.15,2.35,6.69,1.8c3.42-0.75,5.11-3.28,5.68-6.38c0.69-3.72,1.09-7.52,1.21-11.31
			c0.12-3.63-1.84-5.89-5.32-6.91C118.38,41.49,115.97,40.85,113.39,40.13z M201.93,36.74c0.27-0.87,0.46-1.48,0.66-2.09
			c1.08-3.41,1.2-6.85,0.21-10.3c-1.09-3.83-4.4-8.06-10.28-7.53c-2.66,0.24-5.05,1.21-7.39,2.43c-0.78,0.41-1.68,0.78-2.54,0.83
			c-2.78,0.16-4.7,1.37-5.32,4.1c-0.45,1.98-0.67,4.1-0.47,6.11c0.27,2.7,1.04,5.35,1.62,8.12c-1.41,0.36-1.31,1.6-0.75,2.63
			c0.85,1.56,1.98,2.96,3,4.43c-0.07-1.59-0.55-2.98-0.76-4.41c-0.52-3.52-0.91-7.07-1.36-10.6c-0.31-2.48,0.5-4.51,2.45-6.08
			c2-1.62,2.28-1.65,4.45-0.38c3.94,2.31,8.23,3.02,12.71,2.75c1.13-0.07,1.67,0.34,1.76,1.35c0.2,2.23,0.4,4.47,0.46,6.71
			c0.08,2.67,0.02,5.35,0.02,8.02c1.88-1.11,2.49-2.72,2.88-4.43C203.5,37.48,203.53,36.53,201.93,36.74z M201.42,59.14
			c-1.91,17.43-7.81,33.53-14.56,49.38c0.32-0.2,0.54-0.42,0.73-0.68c6.96-9.71,12.07-20.37,16.35-31.48
			c0.83-2.16,0.73-3.81-1.31-5.18c-0.46-0.31-0.65-1.04-0.97-1.57c0.53-0.29,1.03-0.72,1.6-0.86c3.17-0.81,3.18-0.79,2.56-3.99
			c-0.09-0.45-0.19-0.9-0.34-1.33C204.77,61.49,203.41,60.17,201.42,59.14z M86.63,157.76c-0.23-0.02-0.41-0.04-0.59-0.05
			c-1.96-0.04-1.93-0.03-2.26,1.94c-0.26,1.53-0.31,3.21-0.99,4.54c-1.57,3.04-1.54,5.63,0.81,8.28c0.72,0.81,1.21,1.06,1.98,0.54
			c0.54-0.36,1.04-0.92,1.34-1.5c0.72-1.4,1.31-2.83,0.33-4.43c-0.28-0.45-0.36-1.25-0.16-1.73c1.05-2.53,0.85-4.95-0.37-7.34
			C86.7,157.97,86.69,157.93,86.63,157.76z M210.41,126.77c-2.71,0-5.44-0.01-8.17,0c-1.14,0-0.98,0.86-0.75,1.46
			c0.7,1.81,1.52,3.58,2.28,5.34C206.61,133.06,210.16,128.82,210.41,126.77z M195.75,65.29c0.21-1.87,0.38-3.45,0.58-5.19
			c-4.08,1.73-7.87,0.92-11.8,0.01c-0.37,2.14-0.44,4.19,0.65,6.04c1.52-1.18,2.95-2.29,4.39-3.4c0.94-0.72,1.87-0.6,2.78,0.06
			C193.38,63.55,194.41,64.31,195.75,65.29z M163.71,274.42c-0.11,1.1-0.66,2.28,0.96,2.68c3.32,0.83,6.53,0.53,9.57-1.05
			c0.65-0.34,1.18-0.91,1.76-1.37c-0.04-0.09-0.09-0.18-0.13-0.27C171.83,274.42,167.8,274.42,163.71,274.42z M157.53,150.08
			c-0.21,4.45-0.43,8.82-0.64,13.2c-0.1,2.17,0.57,2.76,2.96,2.53C159.71,160.49,159.07,155.24,157.53,150.08z M135.2,89.52
			c-0.12,0-0.25-0.01-0.37-0.01c0.27,3.42,0.54,6.85,0.81,10.27C137.12,96.25,136.37,92.87,135.2,89.52z M86.66,155.3
			c-2.5,0.3-2.5,0.3-2.27,1.66C86.79,157.24,86.93,157.14,86.66,155.3z M186.21,273.53c0.96,0,1.68,0,2.5,0
			c-0.76-0.93-1.42-1.72-2.23-2.71C186.38,271.86,186.3,272.66,186.21,273.53z M199.9,44.49c-0.17-0.05-0.35-0.09-0.52-0.14
			c-0.28,1.4-0.56,2.81-0.85,4.21c0.13,0.03,0.25,0.05,0.38,0.08C199.24,47.26,199.57,45.88,199.9,44.49z"/>
	</g>
</g>
</svg>
